<svg width="150" height="50" viewBox="0 0 150 50" fill="none" xmlns="http://www.w3.org/2000/svg">
<path d="M81.3877 8.79251C81.3877 5.05417 84.4869 2.03277 88.3052 2.03277C92.1234 2.03277 95.2267 5.06032 95.2267 8.79251C95.2267 12.5247 92.1275 15.5523 88.3052 15.5523C84.4828 15.5523 81.3877 12.5308 81.3877 8.79251ZM100.53 35.4217H98.9835C95.8105 35.4217 94.2107 33.1357 94.2107 29.5367V22.7769H82.4857V32.3574C82.4857 42.7673 89.2823 47.1366 95.8596 47.1366H100.53V35.4217ZM61.7435 38.6378C61.7435 35.1555 63.6403 33.5721 67.4934 33.5721H77.0533V22.7462H61.7435V18.2766C61.7435 14.7411 64.7485 12.8197 68.3373 12.8197H77.0389V2H65.3467C56.1575 2 50 6.93666 50 17.2873V47.11H61.7435V38.6378Z" fill="#00B899"/>
</svg>
