<svg width="370" height="370" viewBox="0 0 370 370" fill="none" xmlns="http://www.w3.org/2000/svg">
<path d="M185 350.812C279.624 350.812 356.332 307.698 356.332 254.516C356.332 201.333 279.624 158.219 185 158.219C90.3758 158.219 13.6678 201.333 13.6678 254.516C13.6678 307.698 90.3758 350.812 185 350.812Z" fill="#F5F5F5"/>
<path d="M59.1334 268.294C78.489 268.294 94.1798 259.236 94.1798 248.063C94.1798 236.889 78.489 227.831 59.1334 227.831C39.7778 227.831 24.087 236.889 24.087 248.063C24.087 259.236 39.7778 268.294 59.1334 268.294Z" fill="#E0E0E0"/>
<path d="M311.636 268.294C330.992 268.294 346.683 259.236 346.683 248.063C346.683 236.889 330.992 227.831 311.636 227.831C292.281 227.831 276.59 236.889 276.59 248.063C276.59 259.236 292.281 268.294 311.636 268.294Z" fill="#E0E0E0"/>
<path d="M185.244 327.124C244.267 327.124 292.115 299.5 292.115 265.423C292.115 231.347 244.267 203.722 185.244 203.722C126.221 203.722 78.3734 231.347 78.3734 265.423C78.3734 299.5 126.221 327.124 185.244 327.124Z" fill="#E0E0E0"/>
<path d="M43.0384 224.657C43.6896 219.299 41.1662 207.725 36.4598 200.096C31.7534 192.467 23.6282 186.302 17.1606 187.671C11.1296 188.944 10.8336 196.611 17.2346 202.471C23.6356 208.332 33.4184 215.954 35.446 225.019L40.626 236.474L43.0384 224.657Z" fill="#1DA0DB"/>
<g opacity="0.15">
<path d="M43.0384 224.657C43.6896 219.299 41.1662 207.725 36.4598 200.096C31.7534 192.467 23.6282 186.302 17.1606 187.671C11.1296 188.944 10.8336 196.611 17.2346 202.471C23.6356 208.332 33.4184 215.954 35.446 225.019L40.626 236.474L43.0384 224.657Z" fill="black"/>
</g>
<path d="M42.5352 232.034C42.4519 232.017 42.3765 231.973 42.3204 231.909C42.2643 231.845 42.2306 231.764 42.2244 231.679C40.8628 212.95 27.8832 196.278 19.4324 191.919C19.3859 191.896 19.3446 191.863 19.3108 191.823C19.277 191.784 19.2515 191.738 19.2356 191.688C19.2198 191.639 19.214 191.586 19.2185 191.535C19.2231 191.483 19.2379 191.432 19.2622 191.386C19.2857 191.34 19.3182 191.298 19.3578 191.265C19.3974 191.231 19.4433 191.205 19.4929 191.189C19.5425 191.174 19.5948 191.168 19.6466 191.172C19.6985 191.177 19.7489 191.192 19.795 191.216C28.4086 195.656 41.6324 212.609 43.0088 231.62C43.015 231.724 42.9806 231.826 42.9129 231.904C42.8453 231.983 42.7496 232.032 42.6462 232.042L42.5352 232.034Z" fill="white"/>
<path d="M38.3838 243.408C37.888 240.293 34.817 234.876 29.3706 230.044C23.3396 224.701 15.2662 221.593 13.7788 217.826C11.988 213.298 16.058 209.723 22.718 211.388C29.378 213.053 40.1376 223.724 40.3448 237.843L38.3838 243.408Z" fill="#1DA0DB"/>
<path d="M40.0784 240.404C40.0038 240.389 39.9349 240.353 39.8799 240.301C39.8248 240.249 39.7859 240.182 39.7676 240.108C36.0676 223.754 24.79 216.798 19.3436 215.407C19.242 215.38 19.1547 215.315 19.1007 215.225C19.0467 215.135 19.0303 215.028 19.055 214.926C19.0671 214.875 19.0892 214.827 19.1201 214.785C19.151 214.743 19.19 214.707 19.2348 214.68C19.2796 214.653 19.3293 214.636 19.381 214.628C19.4328 214.621 19.4855 214.624 19.536 214.637C25.5596 216.184 36.7632 223.243 40.5372 239.93C40.5503 239.981 40.553 240.034 40.545 240.085C40.5371 240.137 40.5187 240.186 40.491 240.231C40.4633 240.275 40.4269 240.313 40.3839 240.343C40.341 240.373 40.2924 240.393 40.2412 240.404C40.188 240.419 40.1317 240.419 40.0784 240.404Z" fill="white"/>
<path d="M327.346 225.545C327.346 225.545 326.717 215.836 330.114 207.6C333.511 199.363 339.186 193.591 345.166 192.015C351.145 190.439 357.05 195.145 351.248 200.155C345.447 205.165 334.628 211.137 331.897 226.44L327.346 225.545Z" fill="#1DA0DB"/>
<g opacity="0.15">
<path d="M327.346 225.545C327.346 225.545 326.717 215.836 330.114 207.6C333.511 199.363 339.186 193.591 345.166 192.015C351.145 190.439 357.05 195.145 351.248 200.155C345.447 205.165 334.628 211.137 331.897 226.44L327.346 225.545Z" fill="black"/>
</g>
<path d="M328.678 222.74H328.612C328.527 222.721 328.453 222.669 328.406 222.595C328.359 222.522 328.342 222.433 328.36 222.348C331.92 205.431 342.916 196.655 348.237 194.376C348.277 194.351 348.323 194.336 348.37 194.33C348.417 194.325 348.465 194.33 348.511 194.345C348.556 194.359 348.597 194.383 348.633 194.416C348.668 194.448 348.695 194.487 348.714 194.531C348.733 194.574 348.742 194.622 348.741 194.669C348.74 194.717 348.728 194.763 348.708 194.806C348.687 194.849 348.657 194.887 348.621 194.917C348.584 194.948 348.541 194.97 348.496 194.983C343.316 197.203 332.504 205.831 329.004 222.481C328.986 222.554 328.944 222.619 328.885 222.666C328.826 222.713 328.754 222.739 328.678 222.74Z" fill="white"/>
<path d="M358.108 214.422C357.812 215.688 356.628 216.539 355.563 217.242C354.497 217.945 353.283 218.722 352.854 219.921C351.988 222.392 354.704 225.101 353.735 227.557C353.495 228.052 353.156 228.493 352.74 228.853C352.324 229.213 351.839 229.485 351.315 229.652C350.453 229.943 349.576 230.19 348.688 230.392C348.26 230.466 347.827 230.515 347.393 230.54C346.104 230.496 344.836 230.881 343.789 231.635C342.206 232.967 342.087 235.335 341.347 237.237C340.877 238.38 340.164 239.408 339.258 240.25C338.353 241.092 337.275 241.727 336.101 242.113C334.14 242.757 331.046 242.853 330.358 242.113C329.84 241.506 330.625 239.249 330.499 238.465C330.181 236.449 330.055 234.407 330.121 232.367C330.188 231.438 330.144 230.504 329.988 229.585C329.781 228.564 329.589 227.535 329.396 226.507C329.204 225.478 328.767 224.575 328.952 223.384C329.179 222.25 329.576 221.158 330.129 220.143C330.632 219.121 331.135 218.108 331.653 217.094C332.219 215.88 332.935 214.741 333.784 213.705C334.558 212.833 335.503 212.129 336.559 211.637C337.615 211.144 338.761 210.873 339.926 210.841C341.85 210.796 343.871 211.499 345.78 211.041C347.689 210.582 349.369 209.746 351.308 209.516C352.324 209.351 353.364 209.42 354.35 209.716C355.336 210.012 356.241 210.528 356.998 211.226C357.43 211.627 357.757 212.129 357.951 212.686C358.144 213.243 358.198 213.839 358.108 214.422Z" fill="#1DA0DB"/>
<path d="M331.061 236.8C331.023 236.797 330.986 236.787 330.952 236.77C330.918 236.753 330.888 236.729 330.863 236.7C330.839 236.671 330.82 236.638 330.808 236.601C330.796 236.565 330.792 236.527 330.795 236.489C332.112 218.167 350.035 212.136 354.364 211.625C354.441 211.619 354.517 211.642 354.578 211.69C354.638 211.738 354.678 211.808 354.689 211.884C354.693 211.922 354.69 211.96 354.679 211.997C354.668 212.034 354.65 212.068 354.626 212.097C354.602 212.127 354.572 212.151 354.539 212.169C354.505 212.188 354.468 212.199 354.43 212.202C350.168 212.706 332.667 218.603 331.379 236.534C331.37 236.61 331.332 236.68 331.273 236.73C331.214 236.779 331.138 236.804 331.061 236.8Z" fill="white"/>
<path d="M349.783 224.079C349.725 224.077 349.669 224.059 349.62 224.028C347.643 222.88 345.436 222.182 343.158 221.985C340.88 221.788 338.586 222.097 336.441 222.888C336.405 222.901 336.367 222.906 336.329 222.904C336.291 222.903 336.253 222.893 336.219 222.876C336.185 222.86 336.154 222.837 336.128 222.808C336.103 222.78 336.083 222.746 336.071 222.71C336.047 222.638 336.052 222.559 336.085 222.49C336.118 222.421 336.177 222.367 336.249 222.34C338.479 221.518 340.864 221.199 343.232 221.408C345.601 221.616 347.893 222.347 349.946 223.547C350 223.58 350.041 223.631 350.063 223.69C350.085 223.75 350.087 223.815 350.068 223.875C350.05 223.936 350.012 223.989 349.96 224.026C349.909 224.063 349.847 224.081 349.783 224.079Z" fill="white"/>
<path d="M185.096 203.678L118.681 165.338C146.801 149.31 190.942 144.515 227.35 155.267C272.327 168.587 294.091 202.531 272.401 229L185.096 203.678Z" fill="#1DA0DB"/>
<path d="M185.096 203.678V256.58L272.401 281.896V229L185.096 203.678Z" fill="#1DA0DB"/>
<path opacity="0.15" d="M185.096 203.678V256.58L272.401 281.896V229L185.096 203.678Z" fill="black"/>
<path d="M118.681 165.338V218.233L185.096 256.58V203.678L118.681 165.338Z" fill="#1DA0DB"/>
<path opacity="0.2" d="M118.681 165.338V218.233L185.096 256.58V203.678L118.681 165.338Z" fill="black"/>
<path d="M272.401 281.896C278.173 274.851 280.867 267.273 280.867 259.696V206.8C280.867 214.378 278.173 221.956 272.401 229V281.896Z" fill="#1DA0DB"/>
<path opacity="0.3" d="M272.401 281.896C278.173 274.851 280.867 267.273 280.867 259.696V206.8C280.867 214.378 278.173 221.956 272.401 229V281.896Z" fill="black"/>
<path d="M253.295 252.74C246.282 256.743 238.915 260.093 231.287 262.744L193.221 219.58L267.924 241.536C263.581 245.92 258.659 249.689 253.295 252.74Z" fill="#455A64"/>
<path d="M193.221 219.58V265.194L231.287 308.351V262.744L193.221 219.58Z" fill="#263238"/>
<path d="M231.287 308.351C238.916 305.702 246.283 302.353 253.295 298.346C258.66 295.289 263.583 291.512 267.924 287.12V241.536C263.581 245.92 258.659 249.689 253.295 252.74C246.282 256.743 238.915 260.093 231.287 262.744V308.351Z" fill="#37474F"/>
<path d="M134.68 277.567C127.487 275.206 121.612 271.75 115.44 268.257C84.1824 250.497 79.18 214.097 112.006 193.096L176.342 230.059L134.68 277.567Z" fill="#1DA0DB"/>
<path opacity="0.3" d="M134.68 277.567C127.487 275.206 121.612 271.75 115.44 268.257C84.1824 250.497 79.18 214.097 112.006 193.096L176.342 230.059L134.68 277.567Z" fill="black"/>
<path d="M176.379 230.059L134.695 277.567V306.893L176.379 259.385V230.059Z" fill="#1DA0DB"/>
<path opacity="0.5" d="M176.379 230.059L134.695 277.567V306.893L176.379 259.385V230.059Z" fill="black"/>
<path d="M134.68 306.893C127.487 304.532 121.612 301.076 115.44 297.584C98.79 288.126 89.5844 273.378 89.5844 258.489V229C89.5844 243.889 98.79 258.637 115.44 268.095C121.589 271.587 127.465 275.043 134.68 277.404V306.893Z" fill="#1DA0DB"/>
<path opacity="0.4" d="M134.68 306.893C127.487 304.532 121.612 301.076 115.44 297.584C98.79 288.126 89.5844 273.378 89.5844 258.489V229C89.5844 243.889 98.79 258.637 115.44 268.095C121.589 271.587 127.465 275.043 134.68 277.404V306.893Z" fill="black"/>
<path d="M222.696 290.613C197.935 297.48 167.691 296.207 142.82 289.34L182.247 244.733L222.696 290.613Z" fill="#1DA0DB"/>
<path opacity="0.7" d="M222.696 290.613C197.935 297.48 167.691 296.207 142.82 289.34L182.247 244.733L222.696 290.613Z" fill="white"/>
<path d="M142.82 309.564C167.699 316.424 197.943 317.704 222.74 310.83V290.613C197.935 297.48 167.691 296.207 142.82 289.34V309.564Z" fill="#1DA0DB"/>
<path opacity="0.5" d="M142.82 309.564C167.699 316.424 197.943 317.704 222.74 310.83V290.613C197.935 297.48 167.691 296.207 142.82 289.34V309.564Z" fill="white"/>
<path d="M127.946 238.82C129.924 238.82 131.528 237.217 131.528 235.239C131.528 233.261 129.924 231.657 127.946 231.657C125.968 231.657 124.364 233.261 124.364 235.239C124.364 237.217 125.968 238.82 127.946 238.82Z" fill="#263238"/>
<path d="M127.946 235.683C127.862 235.682 127.781 235.659 127.709 235.616L88.6742 210.9H78.3142C78.1964 210.9 78.0835 210.853 78.0002 210.77C77.917 210.687 77.8702 210.574 77.8702 210.456C77.8702 210.338 77.917 210.225 78.0002 210.142C78.0835 210.059 78.1964 210.012 78.3142 210.012H88.8C88.8845 210.013 88.9669 210.039 89.0368 210.086L128.183 234.891C128.232 234.922 128.274 234.962 128.307 235.009C128.34 235.056 128.364 235.11 128.376 235.166C128.389 235.223 128.39 235.281 128.379 235.338C128.369 235.395 128.347 235.449 128.316 235.498C128.275 235.557 128.219 235.605 128.155 235.638C128.09 235.67 128.018 235.685 127.946 235.683Z" fill="#263238"/>
<path d="M225.456 238.894C225.456 239.603 225.666 240.295 226.059 240.884C226.453 241.473 227.012 241.932 227.667 242.203C228.321 242.474 229.041 242.545 229.736 242.407C230.431 242.269 231.069 241.928 231.57 241.427C232.071 240.926 232.412 240.288 232.55 239.593C232.688 238.898 232.617 238.178 232.346 237.524C232.075 236.869 231.616 236.31 231.027 235.916C230.438 235.523 229.746 235.313 229.037 235.313C228.088 235.313 227.177 235.69 226.505 236.362C225.833 237.033 225.456 237.944 225.456 238.894Z" fill="#263238"/>
<path d="M229.037 239.338C228.959 239.338 228.883 239.318 228.815 239.279C228.748 239.24 228.692 239.184 228.653 239.116C228.624 239.066 228.605 239.011 228.597 238.954C228.59 238.896 228.594 238.838 228.609 238.783C228.624 238.727 228.65 238.675 228.685 238.629C228.721 238.583 228.765 238.545 228.815 238.517L271.787 213.705C271.853 213.667 271.926 213.647 272.002 213.645H288.815C288.873 213.645 288.931 213.657 288.985 213.679C289.038 213.702 289.087 213.734 289.129 213.775C289.17 213.817 289.203 213.866 289.225 213.92C289.247 213.973 289.259 214.031 289.259 214.089C289.259 214.147 289.247 214.205 289.225 214.258C289.202 214.312 289.169 214.36 289.128 214.401C289.087 214.441 289.038 214.473 288.984 214.495C288.93 214.516 288.873 214.527 288.815 214.526H272.12L229.252 239.279C229.187 239.317 229.113 239.337 229.037 239.338Z" fill="#263238"/>
<path d="M255.788 112.887C256.136 113.25 256.528 113.627 256.861 113.953C257.35 114.419 258.341 115.166 258.845 115.632C258.993 115.773 259.585 116.15 259.629 116.313C259.336 115.508 259.143 114.671 259.052 113.819C259 113.436 259.095 113.047 259.317 112.73C259.539 112.414 259.873 112.192 260.251 112.11C260.584 112.073 260.606 112.909 261.301 114.071C262.189 115.551 263.336 116.291 263.869 118.126C264.179 118.936 264.796 119.59 265.586 119.947L279.394 126.806C279.394 126.806 289.488 123.062 294.72 121.012C300.795 118.629 307.751 116.365 308.92 117.608L297.31 128.101C297.31 128.101 288.474 132.889 281.592 135.627C279.276 136.552 277.988 136.219 276.116 134.961C272.053 132.588 268.125 129.992 264.35 127.184C261.942 125.423 259.434 123.802 256.839 122.329C254.834 121.205 252.495 119.695 251.556 117.49C251.278 116.893 251.131 116.244 251.123 115.585C251.115 114.927 251.248 114.275 251.511 113.671C251.815 113.219 252.041 112.719 252.177 112.191C252.184 111.87 252.17 111.549 252.133 111.229C252.116 111.069 252.138 110.908 252.197 110.758C252.256 110.609 252.351 110.476 252.473 110.371C252.61 110.287 252.768 110.243 252.928 110.243C253.089 110.243 253.246 110.287 253.383 110.371C253.653 110.547 253.889 110.77 254.079 111.03C254.627 111.651 255.196 112.28 255.788 112.887Z" fill="#FFBDA7"/>
<path d="M308.706 117.046C303.526 116.306 300.877 117.882 297.31 119.362C293.062 121.116 279.387 126.422 279.387 126.422L270.566 122.263C270.566 122.263 268.539 126.843 266.356 128.708C266.356 128.708 274.281 134.325 276.486 135.694C278.691 137.063 278.817 136.989 282.28 135.857C285.744 134.724 301.395 130.728 301.395 130.728L308.706 117.046Z" fill="#37474F"/>
<path d="M270.566 122.263L265.912 120.109C265.912 120.109 263.921 124.054 262.212 125.741L266.356 128.701C267.406 127.832 268.289 126.779 268.96 125.593C269.643 124.56 270.183 123.44 270.566 122.263Z" fill="#263238"/>
<path d="M331.934 243.749C330.136 244.785 328.109 244.762 325.903 243.926L324.423 232.086L331.587 232.826L331.934 243.749Z" fill="#FFBDA7"/>
<path d="M309.838 237.311C308.358 240.692 305.576 239.849 302.364 237.806L302.564 225.87L310.141 225.641L309.838 237.311Z" fill="#FFBDA7"/>
<path d="M318.94 255.367C318.778 255.976 318.825 256.622 319.073 257.202C319.325 257.564 320.723 258.682 323.202 258.793C325.57 258.896 327.642 258.512 329.034 257.587C329.627 257.26 330.129 256.79 330.494 256.22C330.86 255.651 331.078 254.998 331.128 254.323C331.217 252.976 331.032 251.681 331.638 250.623C332.245 249.565 333.118 248.536 333.311 248.018C333.529 247.113 333.506 246.167 333.244 245.273L318.94 255.367Z" fill="#263238"/>
<path d="M325.045 243.46C325.02 243.961 324.938 244.457 324.801 244.94C324.275 246.533 323.498 248.032 322.499 249.38C321.804 250.246 320.938 250.971 320.205 251.815C319.42 252.613 318.936 253.659 318.836 254.775C318.792 256.632 320.82 257.202 322.374 257.431C324.057 257.674 325.774 257.537 327.398 257.032C328.254 256.783 329.019 256.293 329.602 255.619C330.185 254.946 330.561 254.118 330.684 253.235C330.75 252.717 330.684 252.192 330.75 251.674C330.92 250.484 331.383 249.355 332.097 248.388C332.51 247.828 332.862 247.225 333.148 246.59C333.599 245.428 333.148 244.156 332.83 243.016C332.534 242.039 332.193 240.929 331.853 241.033C331.876 241.235 331.853 241.44 331.786 241.632C331.677 241.818 331.593 242.017 331.535 242.224C331.469 242.478 331.383 242.725 331.276 242.964C331.111 243.349 330.832 243.675 330.477 243.897L330.343 241.802C330.358 241.583 330.295 241.366 330.166 241.188C329.999 241.043 329.787 240.959 329.566 240.951C328.261 240.677 326.92 240.605 325.593 240.737C325.493 240.741 325.394 240.766 325.304 240.809C325.214 240.852 325.133 240.913 325.067 240.988C324.994 241.135 324.968 241.3 324.993 241.462C325.03 242.121 325.075 242.779 325.045 243.46Z" fill="#455A64"/>
<path d="M323.202 248.329C323.876 247.796 325.422 247.745 326.273 247.804C327.135 247.857 327.969 248.124 328.701 248.581C328.808 248.654 328.938 248.686 329.067 248.671C329.196 248.656 329.316 248.595 329.404 248.499C329.457 248.446 329.498 248.382 329.523 248.311C329.549 248.24 329.559 248.165 329.552 248.09C329.544 248.015 329.521 247.942 329.483 247.878C329.444 247.813 329.392 247.757 329.33 247.715C328.523 247.16 327.577 246.842 326.599 246.797C324.512 246.709 323.913 247.086 323.913 247.086C323.913 247.086 322.98 247.722 323.202 248.329Z" fill="#F5F5F5"/>
<path d="M321.671 250.275C322.522 249.743 324.231 249.765 325.075 249.831C325.921 249.892 326.737 250.173 327.443 250.645C327.549 250.72 327.679 250.753 327.808 250.739C327.937 250.726 328.057 250.666 328.146 250.571C328.199 250.518 328.24 250.454 328.265 250.383C328.291 250.312 328.301 250.237 328.294 250.162C328.286 250.087 328.263 250.014 328.225 249.95C328.186 249.885 328.134 249.829 328.072 249.787C327.251 249.199 326.282 248.853 325.274 248.788C323.188 248.699 322.662 249.143 322.662 249.143C322.422 249.245 322.208 249.399 322.036 249.595C321.865 249.792 321.74 250.024 321.671 250.275Z" fill="#F5F5F5"/>
<path d="M327.361 244.777C326.482 244.651 325.585 244.753 324.756 245.073C324.394 245.295 324.172 245.88 324.409 246.02C325.134 245.7 325.927 245.565 326.717 245.628C327.5 245.685 328.268 245.873 328.989 246.183C329.167 246.257 329.381 246.361 329.574 246.457C329.633 246.488 329.697 246.507 329.764 246.512C329.83 246.518 329.897 246.509 329.96 246.488C330.023 246.466 330.081 246.432 330.131 246.387C330.18 246.343 330.22 246.288 330.247 246.228C330.295 246.122 330.301 246.002 330.264 245.892C330.227 245.783 330.149 245.691 330.047 245.636C329.223 245.162 328.307 244.87 327.361 244.777Z" fill="#F5F5F5"/>
<path d="M290.169 245.525C290.001 246.072 290.051 246.663 290.309 247.175C290.554 247.648 293.121 248.995 296.511 248.655C299.027 248.402 301.431 247.482 303.474 245.991C304.739 245.095 306.086 244.888 307.766 244.748C309.446 244.607 311.636 243.689 311.977 242.898C312.15 242.186 312.109 241.439 311.858 240.752L290.169 245.525Z" fill="#263238"/>
<path d="M303.526 234.661L302.63 234.365C302.473 234.292 302.295 234.276 302.127 234.321C301.913 234.41 301.831 234.669 301.779 234.898C301.716 235.4 301.607 235.896 301.454 236.378C301.213 236.776 300.899 237.125 300.529 237.407C299.708 238.111 298.815 238.726 297.865 239.242C296.77 239.871 295.697 240.367 294.564 240.914C293.432 241.462 291.863 241.847 290.968 242.491C290.645 242.726 290.385 243.037 290.21 243.396C290.035 243.754 289.951 244.151 289.964 244.55C289.977 244.949 290.087 245.339 290.286 245.685C290.484 246.032 290.764 246.325 291.101 246.538C292.441 247.278 295.911 248.018 299.5 246.871C301.454 246.25 303.585 244.082 306.16 243.8C307.803 243.623 310.904 243.06 311.925 241.788C312.302 241.225 311.725 239.479 311.251 237.977C310.733 236.334 310.474 233.751 309.934 233.914C309.934 234.469 309.446 234.802 309.194 235.268C308.976 235.698 308.79 236.143 308.639 236.6C308.489 237.062 308.203 237.467 307.818 237.762C307.621 237.903 307.384 237.975 307.142 237.968C306.9 237.962 306.667 237.876 306.478 237.725C305.983 237.237 306.242 236.349 305.872 235.757C305.571 235.384 305.154 235.124 304.688 235.017L303.526 234.661Z" fill="#455A64"/>
<path d="M299.374 238.28C299.486 238.05 299.653 237.851 299.861 237.702C300.069 237.553 300.312 237.459 300.566 237.429C301.63 237.4 302.668 237.757 303.489 238.435C303.57 238.495 303.635 238.575 303.677 238.666C303.72 238.757 303.739 238.858 303.733 238.958C303.727 239.059 303.697 239.156 303.644 239.242C303.591 239.328 303.517 239.399 303.43 239.449C303.318 239.524 303.184 239.559 303.049 239.548C302.915 239.537 302.788 239.482 302.69 239.39C301.768 238.607 300.581 238.21 299.374 238.28Z" fill="#F5F5F5"/>
<path d="M297.088 239.679C297.245 239.444 297.456 239.251 297.703 239.115C297.95 238.978 298.226 238.903 298.509 238.894C299.663 238.908 300.782 239.289 301.705 239.982C301.782 240.041 301.843 240.118 301.884 240.206C301.924 240.294 301.942 240.391 301.937 240.488C301.932 240.584 301.904 240.679 301.854 240.762C301.805 240.845 301.736 240.915 301.654 240.966C301.549 241.028 301.428 241.056 301.307 241.046C301.186 241.035 301.072 240.986 300.98 240.907C300.465 240.424 299.847 240.063 299.174 239.85C298.5 239.638 297.787 239.579 297.088 239.679Z" fill="#F5F5F5"/>
<path d="M294.564 240.922C294.743 240.698 294.967 240.517 295.223 240.389C295.478 240.261 295.759 240.19 296.044 240.182C297.159 240.217 298.233 240.603 299.115 241.284C299.192 241.344 299.253 241.421 299.294 241.509C299.334 241.597 299.352 241.693 299.347 241.79C299.342 241.887 299.314 241.981 299.264 242.064C299.215 242.148 299.146 242.218 299.064 242.269C298.958 242.33 298.836 242.358 298.714 242.347C298.592 242.337 298.476 242.288 298.383 242.209C297.89 241.714 297.288 241.339 296.625 241.116C295.963 240.892 295.257 240.826 294.564 240.922Z" fill="#F5F5F5"/>
<path d="M329.145 157.206C329.959 170.17 331.276 198.771 331.276 198.771C331.461 200.385 332.06 204.255 332.349 210.071C332.778 218.5 332.112 237.103 332.112 237.103C331.014 237.684 329.809 238.034 328.571 238.132C327.333 238.23 326.087 238.074 324.912 237.673C324.912 237.673 320.117 211.137 318.585 202.893C317.238 195.619 314.611 181.922 314.611 181.922L313.383 199.645C313.617 203.215 313.521 206.8 313.094 210.352C312.613 214.193 310.297 230.887 310.297 230.887C307.639 231.645 304.825 231.666 302.157 230.947C302.157 230.947 301.417 203.707 301.239 200.17C301.039 196.13 300.196 154.63 300.196 154.63L329.145 157.206Z" fill="#37474F"/>
<path d="M314.611 181.892L312.391 171.31C312.391 171.31 307.056 171.007 304.029 168.128C304.029 168.128 304.636 171.021 311.377 172.568L313.597 183.268L313.819 193.221L314.611 181.892Z" fill="#263238"/>
<path d="M326.703 118.615C329.248 119.066 329.418 120.331 329.973 122.855C330.501 124.882 330.721 126.978 330.625 129.071L328.723 144.011L329.374 161.224C325.274 165.664 308.876 167.144 299.915 160.58C299.915 160.58 300.018 132.305 300.425 127.768C301.165 119.836 304.747 117.024 310.045 117.038L319.066 117.778L326.703 118.615Z" fill="#1DA0DB"/>
<path d="M317.164 98.5754C317.16 100.161 316.685 101.709 315.8 103.025C314.916 104.34 313.661 105.364 312.194 105.966C310.728 106.569 309.116 106.723 307.562 106.408C306.008 106.094 304.582 105.326 303.465 104.202C302.347 103.077 301.589 101.646 301.284 100.09C300.98 98.5344 301.145 96.9232 301.756 95.4606C302.368 93.998 303.4 92.7498 304.721 91.8737C306.043 90.9976 307.594 90.5331 309.179 90.539C310.231 90.5419 311.273 90.7521 312.244 91.1577C313.214 91.5632 314.096 92.1561 314.837 92.9024C315.579 93.6488 316.166 94.534 316.565 95.5074C316.964 96.4808 317.168 97.5233 317.164 98.5754Z" fill="#263238"/>
<path d="M319.68 100.144L321.389 95.5488C321.844 95.4943 322.306 95.5461 322.737 95.7002C323.169 95.8543 323.558 96.1065 323.876 96.4368C324.941 97.532 324.327 100.943 322.988 104.288C322.988 104.288 321.671 110.386 321.145 111.385C320.796 112 320.224 112.458 319.547 112.665L319.68 100.144Z" fill="#263238"/>
<path d="M319.798 104.562C320.294 104.858 320.99 103.918 321.597 103.289C322.203 102.66 324.187 101.809 325.163 103.881C326.14 105.953 324.275 108.78 322.721 109.261C320.043 110.097 319.643 108.38 319.643 108.38L319.406 118C318.81 119.294 317.903 120.419 316.765 121.275C315.627 122.132 314.295 122.692 312.887 122.907C308.136 123.536 309.128 119.628 310.667 117.727V114.767C309.473 114.955 308.262 115.012 307.056 114.937C305.087 114.626 303.851 113.072 303.267 110.933C302.32 107.507 301.964 104.74 302.801 98.013C303.718 90.613 312.302 90.613 316.927 93.5212C321.552 96.4294 319.798 104.562 319.798 104.562Z" fill="#FFBDA7"/>
<path d="M319.754 105.213C320.494 104.991 321.093 103.733 321.597 103.289C322.448 102.549 321.382 95.5488 321.382 95.5488C321.607 94.9471 321.65 94.2928 321.506 93.6668C321.363 93.0407 321.039 92.4705 320.575 92.0264C319.421 90.7462 317.49 90.5982 314.182 90.0654C312.554 89.8064 310.63 89.6732 309.002 89.3772C307.331 89.1158 305.711 88.5965 304.199 87.838C303.928 87.6606 303.605 87.5774 303.282 87.6012C303.155 87.6324 303.038 87.6919 302.938 87.7752C302.838 87.8585 302.758 87.9635 302.704 88.0822C302.601 88.3146 302.556 88.5684 302.571 88.8222C302.578 89.0959 302.623 89.3674 302.704 89.6288C302.756 89.7842 303.074 90.2504 303.008 90.3688C302.838 90.7018 301.572 90.1394 301.313 90.058C301.253 90.0397 301.188 90.0397 301.128 90.058C301.084 90.0884 301.049 90.1291 301.025 90.1764C300.847 90.6055 300.768 91.069 300.794 91.5326C300.819 91.9963 300.949 92.4483 301.173 92.8552C302.207 94.6236 303.812 95.9882 305.724 96.7254C307.685 97.532 309.818 97.8299 311.925 97.5912C312.826 97.486 313.712 97.2799 314.567 96.977C314.734 97.2935 314.927 97.5955 315.144 97.8798C315.395 98.1648 315.683 98.4138 316.002 98.6198C316.317 98.8346 316.664 98.997 317.031 99.1008C317.408 99.2044 317.771 99.1526 317.978 99.5596C318.093 99.8281 318.146 100.119 318.133 100.411C318.133 101.269 318.185 102.12 318.207 102.971C318.2 103.406 318.257 103.84 318.378 104.259C318.442 104.466 318.554 104.655 318.705 104.812C318.855 104.968 319.039 105.088 319.243 105.161C319.405 105.229 319.582 105.247 319.754 105.213Z" fill="#263238"/>
<path d="M310.711 114.811C310.711 114.811 315.114 113.938 316.631 113.131C317.532 112.658 318.273 111.929 318.762 111.037C318.525 111.934 318.11 112.775 317.541 113.509C316.417 114.944 310.689 115.98 310.689 115.98L310.711 114.811Z" fill="#F0997A"/>
<path d="M311.362 103.23C311.368 103.403 311.425 103.57 311.525 103.711C311.625 103.852 311.765 103.96 311.926 104.022C312.087 104.084 312.263 104.098 312.432 104.06C312.601 104.023 312.755 103.937 312.875 103.813C312.996 103.688 313.077 103.532 313.108 103.362C313.14 103.192 313.121 103.016 313.053 102.857C312.986 102.698 312.873 102.562 312.729 102.466C312.585 102.371 312.416 102.32 312.243 102.32C312.125 102.322 312.009 102.347 311.901 102.394C311.794 102.44 311.696 102.508 311.614 102.593C311.532 102.677 311.468 102.777 311.425 102.886C311.382 102.996 311.36 103.112 311.362 103.23Z" fill="#263238"/>
<path d="M312.413 100.522L314.367 101.787C314.531 101.518 314.585 101.197 314.517 100.889C314.449 100.582 314.266 100.312 314.004 100.137C313.875 100.054 313.731 99.9985 313.58 99.9731C313.43 99.9477 313.275 99.9532 313.126 99.9891C312.978 100.025 312.838 100.091 312.715 100.182C312.593 100.274 312.49 100.389 312.413 100.522Z" fill="#263238"/>
<path d="M312.828 108.588L309.727 109.912C309.816 110.123 309.945 110.313 310.108 110.473C310.271 110.633 310.465 110.758 310.677 110.842C310.889 110.926 311.116 110.967 311.344 110.962C311.573 110.958 311.798 110.908 312.006 110.815C312.211 110.728 312.396 110.6 312.55 110.439C312.703 110.279 312.822 110.088 312.899 109.879C312.976 109.67 313.009 109.448 312.997 109.226C312.985 109.004 312.927 108.787 312.828 108.588Z" fill="#F0997A"/>
<path d="M303.282 101.476L305.139 100.351C305.072 100.224 304.979 100.113 304.866 100.023C304.754 99.934 304.624 99.8689 304.485 99.8321C304.346 99.7952 304.201 99.7875 304.059 99.8094C303.916 99.8313 303.78 99.8823 303.659 99.9592C303.416 100.118 303.242 100.362 303.172 100.643C303.102 100.925 303.141 101.223 303.282 101.476Z" fill="#263238"/>
<path d="M304.014 102.956C304.01 103.074 304.03 103.192 304.072 103.302C304.114 103.412 304.177 103.513 304.258 103.598C304.34 103.684 304.437 103.752 304.545 103.799C304.653 103.847 304.77 103.872 304.887 103.874C305.126 103.868 305.353 103.769 305.519 103.597C305.685 103.425 305.777 103.195 305.775 102.956C305.775 102.723 305.683 102.499 305.517 102.334C305.352 102.168 305.128 102.076 304.895 102.076C304.661 102.076 304.437 102.168 304.272 102.334C304.107 102.499 304.014 102.723 304.014 102.956Z" fill="#263238"/>
<path d="M308.92 102.483L308.166 108.107L305.302 106.871L308.92 102.483Z" fill="#F0997A"/>
<path d="M315.24 163.251L315.366 165.745C315.377 165.961 315.464 166.165 315.612 166.322C315.759 166.48 315.958 166.579 316.172 166.604C319.093 166.916 322.046 166.538 324.793 165.501C329.973 163.57 330.07 161.912 330.07 161.912V158.538L315.24 163.251Z" fill="#263238"/>
<path d="M303.444 160.735V162.659C303.444 162.753 303.422 162.845 303.379 162.929C303.337 163.012 303.275 163.085 303.199 163.14C303.124 163.195 303.036 163.232 302.944 163.248C302.852 163.263 302.757 163.257 302.667 163.229C301.929 163.012 301.215 162.72 300.536 162.356C299.933 162.048 299.401 161.617 298.975 161.091L298.879 158.175L303.444 160.735Z" fill="#263238"/>
<path d="M298.879 158.175C299.959 159.921 303.444 160.735 303.444 160.735C303.444 160.735 303.363 159.477 303.444 152.595C303.526 145.713 303.777 132.897 305.287 127.169C306.141 124.014 307.495 121.016 309.298 118.289C309.462 118.04 309.681 117.832 309.937 117.68C310.193 117.527 310.481 117.434 310.778 117.408V117.075C305.598 116.994 304.384 117.519 302.186 120.287C299.989 123.055 299.545 128.272 299.286 134.169C299.034 139.86 297.384 153.861 298.879 158.175ZM315.299 143.109C314.885 158.952 315.062 161.956 315.255 163.251C315.255 163.251 326.355 164.324 330.055 158.538C331.313 155.925 329.885 149.887 329.581 144.233L331.291 124.905C331.402 123.621 331.115 122.334 330.469 121.219C329.823 120.104 328.849 119.215 327.679 118.674L319.495 117.608C318.807 119.207 317.275 121.308 316.535 124.424C315.603 128.434 315.536 134.199 315.299 143.109Z" fill="#455A64"/>
<path d="M277.285 141.362L299.263 142.872L303.415 168.128L282.576 166.145L277.285 141.362Z" fill="#1DA0DB"/>
<path opacity="0.1" d="M277.285 141.362L299.263 142.872L303.415 168.128L282.576 166.145L277.285 141.362Z" fill="black"/>
<path opacity="0.15" d="M294.335 157.709C294.202 158.212 294.535 158.93 295.534 159.781C296.34 160.469 296.866 161.668 298.242 162.001C301.039 162.682 302.453 162.289 302.453 162.289L301.89 158.834L294.335 157.709Z" fill="black"/>
<path opacity="0.15" d="M283.516 143.989C283.516 143.989 283.464 143.641 283.405 143.212C283.346 142.783 284.671 142.517 286.365 142.628L289.606 142.842C291.301 142.946 292.722 143.39 292.781 143.819L292.885 144.596L283.516 143.989Z" fill="black"/>
<path d="M282.243 141.207C282.206 140.94 282.747 140.763 283.457 140.822L284.737 140.926C284.737 140.926 284.508 139.238 287.364 139.32C290.221 139.401 290.672 141.288 290.672 141.288L292.034 141.407C292.774 141.473 293.454 141.747 293.514 142.006L293.632 142.48L282.31 141.74C282.31 141.74 282.28 141.473 282.243 141.207Z" fill="#263238"/>
<path d="M283.76 141.791C284.796 141.843 285.24 141.895 285.322 142.531C285.403 143.168 285.448 143.856 285.448 143.856L290.457 144.204C290.457 144.204 290.302 143.249 290.258 142.872C290.213 142.494 290.413 142.228 291.212 142.287L291.308 141.962L283.42 141.518L283.76 141.791Z" fill="#263238"/>
<path d="M283.368 144.093C283.368 144.093 283.316 143.745 283.257 143.316C283.198 142.887 284.523 142.62 286.217 142.731L289.458 142.938C291.153 143.049 292.574 143.486 292.633 143.923L292.744 144.663L283.368 144.093Z" fill="#37474F"/>
<path d="M300.662 151.382C302.223 151.463 304.621 152.003 305.96 152.218C306.655 152.369 307.37 152.407 308.077 152.329C308.645 152.269 309.207 152.16 309.757 152.003C311.681 151.123 327.013 144.848 327.013 144.848L324.409 129.759C324.409 129.759 323.794 120.065 328.027 119.044C331.283 120.524 332.319 123.395 333.814 129.774C335.531 137.07 336.841 145.595 336.167 147.911C335.708 149.495 335.62 151.204 332.06 152.581C328.301 154.061 324.098 155.023 311.718 158.575C309.389 159.391 307.014 160.071 304.606 160.61C298.287 161.594 295.771 160.447 294.513 158.005C294.15 157.265 294.091 156.525 293.773 155.785C293.547 155.408 293.373 155.002 293.255 154.579C293.201 154.366 293.224 154.14 293.32 153.943C293.416 153.745 293.579 153.587 293.78 153.498C293.977 153.451 294.182 153.451 294.379 153.498C295.386 153.691 296.385 153.883 297.384 154.024C298.535 154.166 299.696 154.206 300.854 154.142C300.913 154.156 300.974 154.156 301.032 154.142C301.202 154.068 301.158 154.001 301.032 153.942" fill="#FFBDA7"/>
<path d="M327.694 118.674C330.654 119.044 332.563 121.508 333.185 124.409C334.154 128.96 334.613 131.572 335.738 137.351C336.767 142.591 337.159 148.57 336.478 150.205C335.797 151.841 332.475 152.921 330.373 153.543C327.235 154.475 317.897 156.799 317.897 156.799C317.963 154.579 316.713 150.879 314.796 149.547L326.606 144.3L323.587 130.921C323.587 130.921 322.27 121.19 327.694 118.674Z" fill="#37474F"/>
<path d="M314.826 149.547C314.826 149.547 316.424 150.146 317.475 152.899C318.526 155.652 317.926 156.799 317.926 156.799L312.28 158.404C312.28 158.404 312.598 153.964 310.141 151.678L314.826 149.547Z" fill="#263238"/>
<path d="M39.6788 232.56C39.6788 232.56 38.1988 211.203 39.3384 203.174C40.2856 196.278 41.3956 193.421 41.5954 191.852C41.5954 191.852 43.2974 175.654 43.438 161.89C43.5046 155.23 44.1188 150.546 47.7448 142.65L70.5664 147.83C71.04 151.33 73.1712 175.003 73.5264 195.693C73.8594 213.808 73.3488 229.666 73.3488 229.666V230.614C73.3488 231.672 73.5856 232.412 74.2664 234.114C75.1185 236.299 76.34 238.322 77.8776 240.093C78.3586 240.618 81.6886 243.527 82.1326 244.148C83.5608 245.821 80.5934 246.76 78.4326 246.464C76.109 246.154 72.5126 245.273 71.484 243.86C70.8032 242.92 70.2926 239.619 69.5896 238.68C67.229 235.453 66.2596 234.069 66.2374 233.041C66.2374 231.183 66.8516 230.451 67.0736 229.4C66.8886 227.18 62.1526 209.161 62.0712 202.76C62.0268 199.719 62.234 195.523 62.234 195.523L58.534 174.44C57.1206 179.702 54.5454 189.521 53.7018 194.539C52.6806 200.673 49.1952 218.522 47.0048 226.64C46.3465 228.732 45.8517 230.872 45.5248 233.041L45.4582 233.781C45.4064 234.691 45.0142 244.378 44.6516 246.427C43.9116 250.697 40.108 250.127 39.4716 246.701C38.9536 243.741 39.6048 234.669 39.6196 233.551L39.6788 232.56Z" fill="#FFA8A7"/>
<path d="M39.6788 232.56C38.6058 232.56 39.3088 236.719 39.035 239.39C38.739 242.246 37.7992 244.333 37.555 246.672C37.1906 248.716 37.5051 250.824 38.4504 252.673C39.1904 254.382 42.9496 256.728 44.3704 254.279C45.6726 251.861 46.2191 249.108 45.9392 246.376C45.769 243.615 45.6062 241.603 45.547 239.508C45.5026 237.658 46.9234 233.322 45.547 233.056L45.4804 233.796C44.9846 234.795 40.2338 235.483 39.6714 233.566L39.6788 232.56Z" fill="#37474F"/>
<path d="M65.971 235.32C65.6454 236.659 65.971 240.315 65.971 240.315C66.5702 241.309 67.5043 242.057 68.6054 242.424L69.56 237.311L65.971 235.32Z" fill="#263238"/>
<path d="M68.6202 242.402L73.1638 240.907L74.259 236.881L69.153 239.464L68.6202 242.402Z" fill="black"/>
<path d="M73.3414 230.636V229.689C73.9556 229.985 75.3098 234.957 77.145 238.361C78.8248 241.477 82.1474 243.208 83.2278 244.563C84.6708 246.376 81.8662 248.707 77.3596 247.745C75.1396 247.271 71.743 245.835 70.8254 244.333C69.9078 242.831 69.6044 240.056 68.8496 238.946C68.0948 237.836 66.3188 236.563 65.9414 235.298C65.6416 234.158 65.6416 232.96 65.9414 231.82C66.2966 230.673 66.6 229.282 66.9922 229.407V230.281C67.2956 230.895 68.3834 231.605 70.6552 231.761C71.78 231.79 72.8456 231.62 73.3414 230.636Z" fill="#37474F"/>
<path d="M70.3 145.04C70.3 145.04 73.0898 165.131 73.5856 180.308C74.0814 195.486 73.6448 215.051 73.6448 215.051C73.6448 215.051 72.076 216.169 68.6276 216.324C65.1792 216.48 63.9878 215.325 63.9878 215.325C63.9878 215.325 61.8788 208.451 61.5532 203.618C61.3419 200.998 61.3419 198.365 61.5532 195.745L58.46 175.469C58.46 175.469 54.4122 194.405 53.9682 196.84C53.5242 199.275 49.2766 216.975 49.2766 216.975C47.629 218.088 45.6311 218.559 43.66 218.3C40.3596 217.863 38.998 216.28 38.998 216.28C38.998 216.28 38.3172 207.17 38.9536 202.294C39.59 197.417 40.8998 193.673 41.1292 190.454C41.3586 187.235 40.8998 169.985 41.1292 163.074C41.3586 156.162 42.1356 150.805 47.3156 141.503L70.3 145.04Z" fill="#455A64"/>
<path d="M58.46 175.469L61.0278 162.8C61.0278 162.8 65.4678 161.631 67.5768 158.908C67.5768 158.908 66.9996 161.927 62.3968 163.866L59.681 176.49L60.606 189.544L58.46 175.469Z" fill="#37474F"/>
<path d="M74.5402 116.594C79.9718 119.273 85.988 122.995 88.948 123.521C93.2326 122.677 102.571 120.139 105.79 118.378C106.356 118.067 106.789 117.562 107.011 116.957C107.618 115.359 108.425 114.582 109.335 113.257C110.075 112.236 110.29 111.163 110.593 111.207C110.943 111.33 111.238 111.573 111.425 111.893C111.612 112.213 111.679 112.589 111.614 112.954C111.473 113.911 111.225 114.849 110.874 115.751C112.319 114.873 113.621 113.78 114.737 112.51C116.794 109.986 118.888 110.334 119.177 114.352C119.281 115.795 119.229 118.866 113.997 122.019C112.517 122.929 109.143 124.579 107.1 125.489C101.654 127.916 95.5414 130.114 91.612 131.498C90.0705 131.899 88.4569 131.938 86.8982 131.609C76.9748 129.389 70.3222 125.837 65.0238 123.565L65.2014 114.493C68.4796 114.641 69.8634 114.286 74.5402 116.594Z" fill="#FFA8A7"/>
<path d="M65.0608 114.508C68.9088 113.923 72.5422 115.322 74.3922 116.247C80.2234 119.162 88.3634 123.38 88.5188 123.425C88.6742 123.469 93.4324 122.485 93.4324 122.485C93.4324 122.485 93.8542 127.073 96.496 129.774C96.496 129.774 92.4408 131.55 90.835 131.994C89.2292 132.438 88.5484 132.416 86.395 131.912C84.2416 131.409 71.595 127.184 71.595 127.184L65.0608 114.508Z" fill="#455A64"/>
<path d="M54.6342 114.411L48.1 115.344C49.284 122.381 45.954 128.575 45.954 128.575L48.0334 139.283C47.9446 140.556 45.7024 142.983 43.6452 147.815C47.5006 152.995 65.1792 155.496 71.3508 150.967C70.7514 145.047 70.4702 142.124 70.2778 140.274V133.614C78.0108 127.265 68.6794 117.608 65.2458 114.537H62.0194L54.6342 114.411Z" fill="#1DA0DB"/>
<path d="M30.9394 141.399C32.3306 135.975 37.0074 126.599 38.6798 122.278C40.5964 117.297 43.8598 115.536 47.4562 115.484C48.7586 117.179 49.3136 125.659 45.2732 130.514C43.5564 134.132 39.6344 141.71 39.6344 141.71C39.7676 142.687 42.4094 152.729 43.9412 156.044C44.22 156.628 44.7012 157.09 45.2954 157.346C46.8864 158.034 48.7512 159.773 50.0166 160.758C51.0082 161.498 51.7704 161.646 51.7038 161.949C51.5838 162.288 51.3408 162.57 51.0228 162.739C50.7048 162.907 50.3352 162.95 49.987 162.859C48.9089 162.513 47.8577 162.087 46.842 161.586C47.792 163.091 48.8427 164.53 49.987 165.893C52.1256 168.365 52.0516 170.474 47.8928 170.54C44.7404 170.585 43.0828 168.816 40.2856 163.422C39.4864 161.868 38.3246 159.803 37.3626 157.805C34.9354 152.751 34.4618 152.299 33.1298 149.073C31.0356 143.974 30.3992 143.493 30.9394 141.399Z" fill="#FFA8A7"/>
<path d="M49.173 115.196C44.9106 115.551 42.1874 115.677 39.9156 119.014C37.6438 122.352 31.82 137.351 31.08 139.623C30.34 141.895 30.192 143.094 33.0558 149.073C35.852 148.812 38.5409 147.867 40.885 146.32L40.0932 141.754L45.7394 130.98C48.653 126.265 49.8648 120.695 49.173 115.196Z" fill="#455A64"/>
<path d="M54.7082 112.132C54.7082 110.993 50.9194 108.277 49.025 105.398C47.2638 102.734 44.7996 95.4008 50.6308 93.0624C50.4468 92.2813 50.4468 91.4681 50.6308 90.687C50.892 89.7566 51.4412 88.9327 52.1996 88.3338C53.4933 87.3137 55.0181 86.6275 56.6396 86.3358C59.0243 85.7803 61.4792 85.5883 63.9212 85.766C65.5146 85.8337 67.0832 86.1845 68.5536 86.802C70.0305 87.4329 71.2491 88.5472 72.0094 89.9618C72.3071 90.545 72.4865 91.1813 72.5373 91.834C72.5881 92.4868 72.5093 93.1432 72.3054 93.7654C72.039 94.5054 72.0094 94.4314 72.4534 95.0456C72.8054 95.5079 72.9621 96.0897 72.89 96.6662C72.7198 97.9168 71.5284 98.2276 71.41 98.8862C71.38 99.0173 71.3945 99.1547 71.4511 99.2767C71.5076 99.3987 71.6031 99.4984 71.7226 99.5603C71.842 99.6221 71.9786 99.6425 72.1109 99.6183C72.2432 99.594 72.3636 99.5266 72.4534 99.4264C72.4233 99.5899 72.3609 99.7458 72.2699 99.8849C72.1788 100.024 72.0609 100.144 71.9231 100.237C71.7853 100.33 71.6304 100.394 71.4673 100.427C71.3042 100.459 71.1363 100.459 70.9734 100.425C69.6266 100.351 68.4278 98.5236 68.4278 98.5236L54.7082 112.132Z" fill="#263238"/>
<path d="M50.5124 91.6712C48.2554 90.3614 44.8514 89.7694 42.143 92.4112C38.5688 95.8966 39.664 104.355 37.703 107.455C35.9048 110.304 33.8032 109.261 32.1234 111.533C31.6797 112.226 31.5249 113.066 31.6922 113.872C31.8596 114.679 32.3357 115.387 33.0188 115.847C34.7578 117.068 38.4874 117.586 41.7286 115.351C47.1824 111.592 46.0132 106.279 45.1326 102.446C44.252 98.6124 45.1326 92.019 50.5124 94.2316C50.5124 94.2316 52.6362 92.8922 50.5124 91.6712Z" fill="#263238"/>
<path d="M66.9552 92.6924C68.6794 93.4324 70.3148 96.0742 70.2926 103.452C70.2926 109.712 68.3538 111.296 67.3844 111.755C66.415 112.214 64.528 111.984 62.6854 111.703V115.299C62.6854 115.299 67.1254 120.169 64.1654 122.226C56.4472 120.879 54.76 115.1 54.76 115.1L54.6268 107.256C54.6268 107.256 53.5686 108.366 51.6668 106.738C50.135 105.391 49.58 103.082 50.7344 101.817C51.8888 100.551 53.3688 100.448 54.7082 101.861C54.7082 101.861 57.5054 102.246 61.198 99.9296C64.8906 97.6134 66.6 95.09 66.9552 92.6924Z" fill="#FFA8A7"/>
<path d="M67.118 101.328C67.1181 101.491 67.1661 101.65 67.2559 101.785C67.3457 101.921 67.4734 102.027 67.6232 102.091C67.7729 102.154 67.938 102.172 68.0979 102.143C68.2578 102.113 68.4055 102.037 68.5225 101.924C68.6395 101.811 68.7207 101.666 68.7559 101.507C68.7911 101.348 68.7789 101.183 68.7207 101.031C68.6625 100.879 68.5609 100.748 68.4285 100.653C68.2962 100.559 68.1389 100.505 67.9764 100.499C67.8654 100.496 67.7548 100.516 67.6513 100.556C67.5478 100.596 67.4533 100.657 67.3733 100.734C67.2934 100.811 67.2297 100.903 67.1859 101.005C67.142 101.107 67.1189 101.217 67.118 101.328Z" fill="#263238"/>
<path d="M60.495 101.698C60.4801 101.821 60.4909 101.946 60.5267 102.064C60.5625 102.183 60.6225 102.293 60.7029 102.387C60.7833 102.481 60.8824 102.558 60.9938 102.612C61.1053 102.666 61.2268 102.696 61.3505 102.7C61.4743 102.705 61.5976 102.684 61.7128 102.638C61.828 102.593 61.9325 102.524 62.0197 102.436C62.1069 102.348 62.1749 102.243 62.2194 102.128C62.264 102.012 62.2841 101.889 62.2784 101.765C62.2933 101.642 62.2825 101.517 62.2467 101.399C62.2109 101.28 62.1509 101.17 62.0705 101.076C61.9901 100.982 61.891 100.905 61.7796 100.851C61.6681 100.797 61.5466 100.767 61.4229 100.763C61.2991 100.758 61.1758 100.779 61.0606 100.825C60.9454 100.87 60.8409 100.939 60.7537 101.027C60.6665 101.115 60.5985 101.22 60.554 101.335C60.5094 101.451 60.4894 101.574 60.495 101.698Z" fill="#263238"/>
<path d="M61.7974 106.937L64.3208 107.722C64.2841 107.894 64.2122 108.057 64.1096 108.201C64.0069 108.344 63.8757 108.465 63.7243 108.555C63.5728 108.645 63.4043 108.703 63.2294 108.726C63.0544 108.748 62.8768 108.734 62.7076 108.684C62.3681 108.555 62.0877 108.306 61.9199 107.984C61.752 107.662 61.7085 107.289 61.7974 106.937Z" fill="#F28F8F"/>
<path d="M69.3158 99.789L67.1772 98.938C67.2261 98.7939 67.3043 98.6615 67.4068 98.5491C67.5094 98.4367 67.6341 98.3467 67.7731 98.2848C67.9121 98.223 68.0624 98.1905 68.2146 98.1896C68.3667 98.1887 68.5174 98.2192 68.6572 98.2794C68.939 98.3992 69.1643 98.6225 69.2868 98.9032C69.4093 99.1839 69.4196 99.5008 69.3158 99.789Z" fill="#263238"/>
<path d="M54.76 100.847V104.34C54.9816 104.345 55.202 104.305 55.4077 104.222C55.6134 104.14 55.8001 104.016 55.9566 103.859C56.113 103.702 56.2358 103.515 56.3176 103.308C56.3994 103.102 56.4385 102.882 56.4324 102.66C56.4373 102.202 56.2669 101.759 55.956 101.422C55.6452 101.085 55.2174 100.879 54.76 100.847Z" fill="#263238"/>
<path d="M64.3208 100.855L64.9942 105.938L67.2586 104.836L64.3208 100.855Z" fill="#F28F8F"/>
<path d="M62.6854 111.74C60.7466 111.518 56.7654 110.401 56.1068 108.78C56.3645 109.594 56.8623 110.311 57.535 110.837C58.7412 111.873 62.715 112.954 62.715 112.954L62.6854 111.74Z" fill="#F28F8F"/>
<path d="M280.556 63.5216L250.897 46.398C250.572 46.1586 250.189 46.0121 249.787 45.9743C249.386 45.9364 248.981 46.0087 248.618 46.1834L239.627 51.3634C239.294 51.5907 239.029 51.9043 238.861 52.2706C238.693 52.637 238.628 53.0422 238.672 53.4428V84.2194C238.733 85.3321 239.055 86.4147 239.613 87.3792C240.171 88.3436 240.949 89.1626 241.884 89.7694L271.58 106.923C271.902 107.16 272.283 107.307 272.682 107.346C273.08 107.385 273.482 107.315 273.844 107.145C274.422 106.812 282.273 102.261 282.85 101.965C283.182 101.736 283.445 101.422 283.612 101.056C283.779 100.69 283.843 100.285 283.797 99.8852V69.0716C283.733 67.9566 283.405 66.8727 282.842 65.9082C282.279 64.9437 281.495 64.126 280.556 63.5216Z" fill="#37474F"/>
<path d="M283.768 69.0716V99.8556C283.813 100.255 283.749 100.66 283.582 101.026C283.415 101.393 283.152 101.707 282.821 101.935L273.874 107.115C274.177 106.875 274.415 106.563 274.566 106.208C274.718 105.852 274.777 105.465 274.74 105.08V74.296C274.704 73.1794 274.38 72.091 273.8 71.1362L282.828 65.9562C283.399 66.8989 283.722 67.9705 283.768 69.0716Z" fill="#263238"/>
<path d="M241.884 89.7916L271.58 106.923C273.349 107.944 274.784 107.115 274.784 105.073V74.2886C274.723 73.1769 274.402 72.0951 273.845 71.1309C273.288 70.1667 272.512 69.3471 271.58 68.7386L241.876 51.615C240.108 50.5938 238.672 51.4226 238.672 53.465V84.2416C238.733 85.3543 239.055 86.4369 239.613 87.4014C240.171 88.3658 240.949 89.1848 241.884 89.7916Z" fill="#455A64"/>
<path d="M261.065 69.7376C261.151 69.6048 261.271 69.4975 261.412 69.4268C261.499 69.4062 261.59 69.4054 261.677 69.4247C261.764 69.4439 261.846 69.4826 261.916 69.5378L263.566 70.4702C263.741 70.5783 263.885 70.7316 263.98 70.9142C264.083 71.1024 264.137 71.3138 264.136 71.5284C264.141 71.585 264.141 71.642 264.136 71.6986C264.12 71.76 264.098 71.8196 264.069 71.8762L252.34 88.8C252.254 88.9302 252.137 89.037 252 89.1108C251.912 89.1315 251.82 89.1323 251.732 89.1131C251.643 89.0939 251.56 89.0552 251.489 88.9998L249.854 88.06C249.677 87.9586 249.535 87.8065 249.447 87.6234C249.344 87.4349 249.291 87.2237 249.291 87.0092C249.285 86.9526 249.285 86.8955 249.291 86.839C249.303 86.7753 249.329 86.7149 249.365 86.6614L261.065 69.7376Z" fill="#FAFAFA"/>
<path d="M266.555 89.614C266.508 88.171 266.136 86.7572 265.468 85.4774C264.847 84.2745 263.894 83.2753 262.722 82.5988C261.553 81.9254 260.643 81.8588 259.977 82.3028C259.311 82.7468 258.956 83.7828 258.889 85.1888C258.859 85.8548 258.845 86.4468 258.845 86.9648C258.845 87.4902 258.845 88.0748 258.889 88.726C258.957 90.1734 259.349 91.5871 260.036 92.8626C260.649 94.0417 261.579 95.026 262.722 95.7042C263.825 96.3406 264.72 96.4442 265.408 95.9632C266.097 95.4822 266.474 94.5572 266.555 93.1512C266.555 92.537 266.6 91.9672 266.6 91.4492C266.6 90.9312 266.585 90.317 266.555 89.614ZM263.743 92.0042C263.739 92.418 263.649 92.8264 263.477 93.203C263.329 93.4694 263.077 93.499 262.737 93.2992C262.378 93.0796 262.114 92.7339 261.997 92.3298C261.842 91.8507 261.753 91.3528 261.731 90.8498C261.657 89.0072 261.657 88.0156 261.731 86.4098C261.733 85.9981 261.824 85.5918 261.997 85.2184C262.145 84.9446 262.397 84.915 262.737 85.1148C263.094 85.336 263.358 85.6811 263.477 86.0842C263.631 86.5635 263.721 87.0612 263.743 87.5642C263.824 89.0431 263.824 90.5253 263.743 92.0042Z" fill="#FAFAFA"/>
<path d="M254.56 69.8856C254.514 68.4401 254.142 67.0236 253.472 65.7416C252.838 64.5484 251.875 63.5621 250.697 62.9C249.528 62.2266 248.618 62.16 247.952 62.6114C247.286 63.0628 246.931 64.0914 246.864 65.4974C246.834 66.1536 246.82 66.7456 246.82 67.2734C246.82 67.7914 246.82 68.3834 246.864 69.0272C246.932 70.4769 247.324 71.893 248.011 73.1712C248.624 74.3504 249.554 75.3346 250.697 76.0128C251.8 76.6492 252.695 76.7528 253.383 76.2718C254.072 75.7908 254.449 74.8658 254.53 73.4524C254.53 72.8382 254.575 72.2758 254.575 71.7504C254.575 71.225 254.56 70.5812 254.56 69.8856ZM251.748 72.2758C251.746 72.6875 251.655 73.0939 251.482 73.4672C251.334 73.741 251.082 73.7706 250.742 73.5708C250.388 73.3456 250.126 73.0021 250.002 72.6014C249.847 72.1224 249.76 71.6244 249.743 71.1214C249.662 69.6425 249.662 68.1603 249.743 66.6814C249.74 66.2677 249.829 65.8585 250.002 65.4826C250.157 65.2162 250.409 65.1792 250.742 65.3864C251.102 65.6038 251.367 65.9504 251.482 66.3558C251.636 66.835 251.726 67.3328 251.748 67.8358C251.819 69.3153 251.809 70.7975 251.718 72.2758H251.748Z" fill="#FAFAFA"/>
<path d="M89.4438 63.5216L119.14 46.398C119.465 46.1586 119.848 46.0121 120.25 45.9743C120.651 45.9364 121.056 46.0087 121.419 46.1834L130.41 51.3634C130.743 51.5907 131.008 51.9043 131.176 52.2706C131.344 52.637 131.409 53.0422 131.365 53.4428V84.2194C131.304 85.3321 130.982 86.4147 130.424 87.3792C129.866 88.3436 129.088 89.1626 128.153 89.7694L98.494 106.9C98.1717 107.138 97.7911 107.284 97.3924 107.324C96.9938 107.363 96.5919 107.293 96.2296 107.122C95.6524 106.789 87.801 102.238 87.2238 101.942C86.8923 101.714 86.629 101.4 86.4621 101.034C86.2953 100.668 86.2312 100.263 86.2766 99.863V69.0716C86.3332 67.9631 86.6493 66.8835 87.1994 65.9195C87.7495 64.9555 88.5183 64.1342 89.4438 63.5216Z" fill="#37474F"/>
<path d="M86.2322 69.0716V99.8556C86.1868 100.255 86.2509 100.66 86.4177 101.026C86.5846 101.393 86.8478 101.707 87.1794 101.935L96.126 107.115C95.8229 106.875 95.5849 106.563 95.4336 106.208C95.2823 105.852 95.2227 105.465 95.2602 105.08V74.296C95.2963 73.1794 95.62 72.091 96.2 71.1362L87.172 65.9562C86.6013 66.8989 86.2781 67.9705 86.2322 69.0716Z" fill="#263238"/>
<path d="M128.116 89.7916L98.457 106.923C96.6884 107.944 95.2528 107.115 95.2528 105.073V74.2886C95.3135 73.1769 95.6353 72.0951 96.192 71.1309C96.7486 70.1667 97.5246 69.3471 98.457 68.7386L128.124 51.615C129.892 50.5938 131.328 51.4226 131.328 53.465V84.2416C131.267 85.3543 130.945 86.4369 130.387 87.4014C129.829 88.3658 129.051 89.1848 128.116 89.7916Z" fill="#455A64"/>
<path d="M117.66 64.7056C117.751 64.4493 117.865 64.2017 118 63.9656C118.127 63.7666 118.303 63.6035 118.511 63.492L120.154 62.5226C120.331 62.4264 120.465 62.4116 120.568 62.5226C120.627 62.578 120.671 62.6464 120.698 62.7223C120.725 62.7982 120.734 62.8794 120.724 62.9592C120.729 63.0257 120.729 63.0925 120.724 63.159C120.705 63.2469 120.68 63.3335 120.65 63.418L108.965 93.832C108.874 94.0883 108.76 94.336 108.625 94.572C108.496 94.7694 108.32 94.9321 108.114 95.0456L106.471 96.0076C106.294 96.1112 106.16 96.126 106.057 96.052C105.998 95.9955 105.953 95.9258 105.926 95.8487C105.899 95.7715 105.89 95.689 105.901 95.608C105.896 95.544 105.896 95.4797 105.901 95.4156C105.92 95.3277 105.945 95.2412 105.975 95.1566L117.66 64.7056Z" fill="#FAFAFA"/>
<path d="M123.691 77.9072C123.622 76.4617 123.259 75.4997 122.603 75.0212C121.947 74.5426 121.032 74.6413 119.858 75.3172C118.686 75.9907 117.733 76.9875 117.112 78.1884C116.437 79.4681 116.065 80.886 116.025 82.3324C116.025 83.028 115.98 83.6422 115.98 84.1602C115.98 84.6782 115.98 85.2554 116.025 85.8622C116.106 87.2756 116.483 88.2154 117.172 88.6816C117.86 89.1478 118.755 89.059 119.858 88.4226C121.001 87.7444 121.931 86.7601 122.544 85.581C123.231 84.3027 123.623 82.8867 123.691 81.437C123.721 80.7957 123.735 80.2111 123.735 79.6832C123.735 79.1553 123.721 78.5633 123.691 77.9072ZM120.872 83.546C120.855 84.049 120.768 84.5471 120.613 85.026C120.49 85.4275 120.228 85.7717 119.873 85.9954C119.517 86.1952 119.266 86.1656 119.133 85.8918C118.959 85.5184 118.868 85.112 118.866 84.7004C118.786 83.2215 118.786 81.7393 118.866 80.2604C118.888 79.7573 118.978 79.2595 119.133 78.7804C119.25 78.3763 119.514 78.0305 119.873 77.811C120.22 77.6038 120.472 77.6408 120.613 77.9072C120.786 78.283 120.874 78.6922 120.872 79.106C120.952 80.5849 120.952 82.0671 120.872 83.546Z" fill="#FAFAFA"/>
<path d="M110.364 72.7198C110.304 71.2793 109.942 70.3173 109.276 69.8338C108.61 69.3503 107.695 69.4465 106.53 70.1224C105.362 70.8014 104.412 71.8001 103.792 73.001C103.117 74.2807 102.745 75.6986 102.705 77.145C102.705 77.8406 102.653 78.4474 102.653 78.9728C102.653 79.4982 102.653 80.0606 102.705 80.6748C102.779 82.0882 103.163 83.0206 103.852 83.4868C104.54 83.953 105.428 83.8716 106.53 83.2352C107.674 82.5541 108.604 81.5674 109.217 80.3862C109.908 79.1124 110.301 77.6977 110.364 76.2496C110.364 75.5984 110.415 75.0138 110.415 74.4958C110.415 73.9778 110.393 73.3784 110.364 72.7198ZM107.552 78.3512C107.53 78.8542 107.44 79.3521 107.285 79.8312C107.171 80.2366 106.906 80.5832 106.545 80.8006C106.197 81.0078 105.946 80.9708 105.805 80.7044C105.624 80.3311 105.533 79.9205 105.539 79.5056C105.458 78.0267 105.458 76.5445 105.539 75.0656C105.554 74.5618 105.643 74.063 105.805 73.5856C105.922 73.1812 106.186 72.8352 106.545 72.6162C106.9 72.409 107.152 72.446 107.285 72.7124C107.458 73.0861 107.549 73.4922 107.552 73.9038C107.633 75.3852 107.633 76.8698 107.552 78.3512Z" fill="#FAFAFA"/>
</svg>
