<svg width="64" height="64" viewBox="0 0 64 64" fill="none" xmlns="http://www.w3.org/2000/svg">
<circle cx="32" cy="32" r="32" fill="#1EA2DB" fill-opacity="0.3"/>
<path d="M26.0805 36.712C26.6245 36.28 26.8725 36.08 26.8245 36.112C28.3925 34.816 29.6245 33.752 30.5205 32.92C31.4325 32.088 32.2005 31.216 32.8245 30.304C33.4485 29.392 33.7605 28.504 33.7605 27.64C33.7605 26.984 33.6085 26.472 33.3045 26.104C33.0005 25.736 32.5445 25.552 31.9365 25.552C31.3285 25.552 30.8485 25.784 30.4965 26.248C30.1605 26.696 29.9925 27.336 29.9925 28.168H26.0325C26.0645 26.808 26.3525 25.672 26.8965 24.76C27.4565 23.848 28.1845 23.176 29.0805 22.744C29.9925 22.312 31.0005 22.096 32.1045 22.096C34.0085 22.096 35.4405 22.584 36.4005 23.56C37.3765 24.536 37.8645 25.808 37.8645 27.376C37.8645 29.088 37.2805 30.68 36.1125 32.152C34.9445 33.608 33.4565 35.032 31.6485 36.424H38.1285V39.76H26.0805V36.712Z" fill="white"/>
</svg>
