<svg width="64" height="64" viewBox="0 0 64 64" fill="none" xmlns="http://www.w3.org/2000/svg">
<circle cx="32" cy="32" r="32" fill="#1EA2DB" fill-opacity="0.3"/>
<path d="M26.4584 27.424C26.5224 25.712 27.0824 24.392 28.1384 23.464C29.1944 22.536 30.6264 22.072 32.4344 22.072C33.6344 22.072 34.6584 22.28 35.5064 22.696C36.3704 23.112 37.0184 23.68 37.4504 24.4C37.8984 25.12 38.1224 25.928 38.1224 26.824C38.1224 27.88 37.8584 28.744 37.3304 29.416C36.8024 30.072 36.1864 30.52 35.4824 30.76V30.856C36.3944 31.16 37.1144 31.664 37.6424 32.368C38.1704 33.072 38.4344 33.976 38.4344 35.08C38.4344 36.072 38.2024 36.952 37.7384 37.72C37.2904 38.472 36.6264 39.064 35.7464 39.496C34.8824 39.928 33.8504 40.144 32.6504 40.144C30.7304 40.144 29.1944 39.672 28.0424 38.728C26.9064 37.784 26.3064 36.36 26.2424 34.456H30.2264C30.2424 35.16 30.4424 35.72 30.8264 36.136C31.2104 36.536 31.7704 36.736 32.5064 36.736C33.1304 36.736 33.6104 36.56 33.9464 36.208C34.2984 35.84 34.4744 35.36 34.4744 34.768C34.4744 34 34.2264 33.448 33.7304 33.112C33.2504 32.76 32.4744 32.584 31.4024 32.584H30.6344V29.248H31.4024C32.2184 29.248 32.8744 29.112 33.3704 28.84C33.8824 28.552 34.1384 28.048 34.1384 27.328C34.1384 26.752 33.9784 26.304 33.6584 25.984C33.3384 25.664 32.8984 25.504 32.3384 25.504C31.7304 25.504 31.2744 25.688 30.9704 26.056C30.6824 26.424 30.5144 26.88 30.4664 27.424H26.4584Z" fill="white"/>
</svg>
