<svg width="570" height="344" viewBox="0 0 570 344" fill="none" xmlns="http://www.w3.org/2000/svg">
<path d="M196 94H0V156H196V94Z" fill="#245C77"/>
<path d="M212.94 128.16V125.96L219.48 116.6H222.74V125.72H224.5V128.16H222.74V131H219.94V128.16H212.94ZM220.12 119.6L216.02 125.72H220.12V119.6ZM227.843 131.14C227.336 131.14 226.916 130.987 226.583 130.68C226.263 130.36 226.103 129.967 226.103 129.5C226.103 129.033 226.263 128.647 226.583 128.34C226.916 128.02 227.336 127.86 227.843 127.86C228.336 127.86 228.743 128.02 229.063 128.34C229.383 128.647 229.543 129.033 229.543 129.5C229.543 129.967 229.383 130.36 229.063 130.68C228.743 130.987 228.336 131.14 227.843 131.14ZM231.138 119V116.42H235.958V131H233.078V119H231.138ZM238.404 120C238.404 118.987 238.697 118.193 239.284 117.62C239.884 117.047 240.651 116.76 241.584 116.76C242.517 116.76 243.277 117.047 243.864 117.62C244.464 118.193 244.764 118.987 244.764 120C244.764 121.027 244.464 121.827 243.864 122.4C243.277 122.973 242.517 123.26 241.584 123.26C240.651 123.26 239.884 122.973 239.284 122.4C238.697 121.827 238.404 121.027 238.404 120ZM251.244 117L243.384 131H240.664L248.504 117H251.244ZM241.564 118.44C240.831 118.44 240.464 118.96 240.464 120C240.464 121.053 240.831 121.58 241.564 121.58C241.924 121.58 242.204 121.453 242.404 121.2C242.604 120.933 242.704 120.533 242.704 120C242.704 118.96 242.324 118.44 241.564 118.44ZM247.184 127.98C247.184 126.953 247.477 126.16 248.064 125.6C248.664 125.027 249.431 124.74 250.364 124.74C251.297 124.74 252.051 125.027 252.624 125.6C253.211 126.16 253.504 126.953 253.504 127.98C253.504 129.007 253.211 129.807 252.624 130.38C252.051 130.953 251.297 131.24 250.364 131.24C249.417 131.24 248.651 130.953 248.064 130.38C247.477 129.807 247.184 129.007 247.184 127.98ZM250.344 126.42C249.584 126.42 249.204 126.94 249.204 127.98C249.204 129.033 249.584 129.56 250.344 129.56C251.091 129.56 251.464 129.033 251.464 127.98C251.464 126.94 251.091 126.42 250.344 126.42Z" fill="#1F1F26"/>
<path d="M18.3435 129.224H22.0235V131H16.1035V119.832H18.3435V129.224ZM24.5833 121.08C24.1886 121.08 23.8579 120.957 23.5913 120.712C23.3353 120.456 23.2073 120.141 23.2073 119.768C23.2073 119.395 23.3353 119.085 23.5913 118.84C23.8579 118.584 24.1886 118.456 24.5833 118.456C24.9779 118.456 25.3033 118.584 25.5593 118.84C25.8259 119.085 25.9593 119.395 25.9593 119.768C25.9593 120.141 25.8259 120.456 25.5593 120.712C25.3033 120.957 24.9779 121.08 24.5833 121.08ZM25.6873 122.136V131H23.4473V122.136H25.6873ZM27.3244 126.552C27.3244 125.667 27.5057 124.883 27.8684 124.2C28.2417 123.507 28.743 122.968 29.3724 122.584C30.0017 122.2 30.695 122.008 31.4524 122.008C32.0817 122.008 32.6364 122.131 33.1164 122.376C33.607 122.611 34.0017 122.915 34.3004 123.288V122.136H36.5564V135.224H34.3004V129.784C34.0017 130.168 33.6017 130.488 33.1004 130.744C32.599 131 32.0337 131.128 31.4044 131.128C30.6577 131.128 29.9697 130.936 29.3404 130.552C28.7217 130.157 28.231 129.613 27.8684 128.92C27.5057 128.227 27.3244 127.437 27.3244 126.552ZM34.3004 126.568C34.3004 126.024 34.1884 125.555 33.9644 125.16C33.7404 124.765 33.447 124.467 33.0844 124.264C32.7324 124.061 32.3537 123.96 31.9484 123.96C31.5537 123.96 31.175 124.061 30.8124 124.264C30.4604 124.467 30.1724 124.765 29.9484 125.16C29.7244 125.544 29.6124 126.008 29.6124 126.552C29.6124 127.096 29.7244 127.571 29.9484 127.976C30.1724 128.371 30.4604 128.669 30.8124 128.872C31.175 129.075 31.5537 129.176 31.9484 129.176C32.3537 129.176 32.7324 129.075 33.0844 128.872C33.447 128.669 33.7404 128.371 33.9644 127.976C34.1884 127.581 34.3004 127.112 34.3004 126.568ZM47.1121 122.136V131H44.8561V129.88C44.5681 130.264 44.1895 130.568 43.7201 130.792C43.2615 131.005 42.7601 131.112 42.2161 131.112C41.5228 131.112 40.9095 130.968 40.3761 130.68C39.8428 130.381 39.4215 129.949 39.1121 129.384C38.8135 128.808 38.6641 128.125 38.6641 127.336V122.136H40.9041V127.016C40.9041 127.72 41.0801 128.264 41.4321 128.648C41.7841 129.021 42.2641 129.208 42.8721 129.208C43.4908 129.208 43.9761 129.021 44.3281 128.648C44.6801 128.264 44.8561 127.72 44.8561 127.016V122.136H47.1121ZM50.4583 121.08C50.0636 121.08 49.7329 120.957 49.4663 120.712C49.2103 120.456 49.0823 120.141 49.0823 119.768C49.0823 119.395 49.2103 119.085 49.4663 118.84C49.7329 118.584 50.0636 118.456 50.4583 118.456C50.8529 118.456 51.1783 118.584 51.4343 118.84C51.7009 119.085 51.8343 119.395 51.8343 119.768C51.8343 120.141 51.7009 120.456 51.4343 120.712C51.1783 120.957 50.8529 121.08 50.4583 121.08ZM51.5623 122.136V131H49.3223V122.136H51.5623ZM53.1994 126.536C53.1994 125.64 53.3754 124.845 53.7274 124.152C54.09 123.459 54.5807 122.925 55.1994 122.552C55.818 122.179 56.506 121.992 57.2634 121.992C57.8394 121.992 58.3887 122.12 58.9114 122.376C59.434 122.621 59.85 122.952 60.1594 123.368V119.16H62.4314V131H60.1594V129.688C59.882 130.125 59.4927 130.477 58.9914 130.744C58.49 131.011 57.9087 131.144 57.2474 131.144C56.5007 131.144 55.818 130.952 55.1994 130.568C54.5807 130.184 54.09 129.645 53.7274 128.952C53.3754 128.248 53.1994 127.443 53.1994 126.536ZM60.1754 126.568C60.1754 126.024 60.0687 125.56 59.8554 125.176C59.642 124.781 59.354 124.483 58.9914 124.28C58.6287 124.067 58.2394 123.96 57.8234 123.96C57.4074 123.96 57.0234 124.061 56.6714 124.264C56.3194 124.467 56.0314 124.765 55.8074 125.16C55.594 125.544 55.4874 126.003 55.4874 126.536C55.4874 127.069 55.594 127.539 55.8074 127.944C56.0314 128.339 56.3194 128.643 56.6714 128.856C57.034 129.069 57.418 129.176 57.8234 129.176C58.2394 129.176 58.6287 129.075 58.9914 128.872C59.354 128.659 59.642 128.36 59.8554 127.976C60.0687 127.581 60.1754 127.112 60.1754 126.568ZM80.6076 119.832V131H78.3676V123.736L75.3756 131H73.6796L70.6716 123.736V131H68.4316V119.832H70.9756L74.5276 128.136L78.0796 119.832H80.6076ZM91.1903 122.136V131H88.9343V129.88C88.6463 130.264 88.2676 130.568 87.7983 130.792C87.3396 131.005 86.8383 131.112 86.2943 131.112C85.6009 131.112 84.9876 130.968 84.4543 130.68C83.9209 130.381 83.4996 129.949 83.1903 129.384C82.8916 128.808 82.7423 128.125 82.7423 127.336V122.136H84.9823V127.016C84.9823 127.72 85.1583 128.264 85.5103 128.648C85.8623 129.021 86.3423 129.208 86.9503 129.208C87.5689 129.208 88.0543 129.021 88.4063 128.648C88.7583 128.264 88.9343 127.72 88.9343 127.016V122.136H91.1903ZM96.0084 123.976V128.264C96.0084 128.563 96.0777 128.781 96.2164 128.92C96.3657 129.048 96.611 129.112 96.9524 129.112H97.9924V131H96.5844C94.6964 131 93.7524 130.083 93.7524 128.248V123.976H92.6964V122.136H93.7524V119.944H96.0084V122.136H97.9924V123.976H96.0084ZM107.972 122.136V131H105.716V129.88C105.428 130.264 105.049 130.568 104.58 130.792C104.121 131.005 103.62 131.112 103.076 131.112C102.383 131.112 101.769 130.968 101.236 130.68C100.703 130.381 100.281 129.949 99.9715 129.384C99.6728 128.808 99.5235 128.125 99.5235 127.336V122.136H101.764V127.016C101.764 127.72 101.94 128.264 102.292 128.648C102.644 129.021 103.124 129.208 103.732 129.208C104.351 129.208 104.836 129.021 105.188 128.648C105.54 128.264 105.716 127.72 105.716 127.016V122.136H107.972ZM109.606 126.536C109.606 125.64 109.782 124.845 110.134 124.152C110.497 123.459 110.982 122.925 111.59 122.552C112.209 122.179 112.897 121.992 113.654 121.992C114.315 121.992 114.891 122.125 115.382 122.392C115.883 122.659 116.283 122.995 116.582 123.4V122.136H118.838V131H116.582V129.704C116.294 130.12 115.894 130.467 115.382 130.744C114.881 131.011 114.299 131.144 113.638 131.144C112.891 131.144 112.209 130.952 111.59 130.568C110.982 130.184 110.497 129.645 110.134 128.952C109.782 128.248 109.606 127.443 109.606 126.536ZM116.582 126.568C116.582 126.024 116.475 125.56 116.262 125.176C116.049 124.781 115.761 124.483 115.398 124.28C115.035 124.067 114.646 123.96 114.23 123.96C113.814 123.96 113.43 124.061 113.078 124.264C112.726 124.467 112.438 124.765 112.214 125.16C112.001 125.544 111.894 126.003 111.894 126.536C111.894 127.069 112.001 127.539 112.214 127.944C112.438 128.339 112.726 128.643 113.078 128.856C113.441 129.069 113.825 129.176 114.23 129.176C114.646 129.176 115.035 129.075 115.398 128.872C115.761 128.659 116.049 128.36 116.262 127.976C116.475 127.581 116.582 127.112 116.582 126.568ZM123.266 119.16V131H121.026V119.16H123.266ZM136.188 119.832V121.64H131.532V124.504H135.1V126.28H131.532V131H129.292V119.832H136.188ZM146.144 122.136V131H143.888V129.88C143.6 130.264 143.221 130.568 142.752 130.792C142.293 131.005 141.792 131.112 141.248 131.112C140.555 131.112 139.941 130.968 139.408 130.68C138.875 130.381 138.453 129.949 138.144 129.384C137.845 128.808 137.696 128.125 137.696 127.336V122.136H139.936V127.016C139.936 127.72 140.112 128.264 140.464 128.648C140.816 129.021 141.296 129.208 141.904 129.208C142.523 129.208 143.008 129.021 143.36 128.648C143.712 128.264 143.888 127.72 143.888 127.016V122.136H146.144ZM153.266 122.008C154.322 122.008 155.175 122.344 155.826 123.016C156.477 123.677 156.802 124.605 156.802 125.8V131H154.562V126.104C154.562 125.4 154.386 124.861 154.034 124.488C153.682 124.104 153.202 123.912 152.594 123.912C151.975 123.912 151.485 124.104 151.122 124.488C150.77 124.861 150.594 125.4 150.594 126.104V131H148.354V122.136H150.594V123.24C150.893 122.856 151.271 122.557 151.73 122.344C152.199 122.12 152.711 122.008 153.266 122.008ZM158.356 126.536C158.356 125.64 158.532 124.845 158.884 124.152C159.247 123.459 159.737 122.925 160.356 122.552C160.975 122.179 161.663 121.992 162.42 121.992C162.996 121.992 163.545 122.12 164.068 122.376C164.591 122.621 165.007 122.952 165.316 123.368V119.16H167.588V131H165.316V129.688C165.039 130.125 164.649 130.477 164.148 130.744C163.647 131.011 163.065 131.144 162.404 131.144C161.657 131.144 160.975 130.952 160.356 130.568C159.737 130.184 159.247 129.645 158.884 128.952C158.532 128.248 158.356 127.443 158.356 126.536ZM165.332 126.568C165.332 126.024 165.225 125.56 165.012 125.176C164.799 124.781 164.511 124.483 164.148 124.28C163.785 124.067 163.396 123.96 162.98 123.96C162.564 123.96 162.18 124.061 161.828 124.264C161.476 124.467 161.188 124.765 160.964 125.16C160.751 125.544 160.644 126.003 160.644 126.536C160.644 127.069 160.751 127.539 160.964 127.944C161.188 128.339 161.476 128.643 161.828 128.856C162.191 129.069 162.575 129.176 162.98 129.176C163.396 129.176 163.785 129.075 164.148 128.872C164.511 128.659 164.799 128.36 165.012 127.976C165.225 127.581 165.332 127.112 165.332 126.568ZM173.168 131.144C172.443 131.144 171.792 131.016 171.216 130.76C170.64 130.493 170.181 130.136 169.84 129.688C169.509 129.24 169.328 128.744 169.296 128.2H171.552C171.595 128.541 171.76 128.824 172.048 129.048C172.347 129.272 172.715 129.384 173.152 129.384C173.579 129.384 173.909 129.299 174.144 129.128C174.389 128.957 174.512 128.739 174.512 128.472C174.512 128.184 174.363 127.971 174.064 127.832C173.776 127.683 173.312 127.523 172.672 127.352C172.011 127.192 171.467 127.027 171.04 126.856C170.624 126.685 170.261 126.424 169.952 126.072C169.653 125.72 169.504 125.245 169.504 124.648C169.504 124.157 169.643 123.709 169.92 123.304C170.208 122.899 170.613 122.579 171.136 122.344C171.669 122.109 172.293 121.992 173.008 121.992C174.064 121.992 174.907 122.259 175.536 122.792C176.165 123.315 176.512 124.024 176.576 124.92H174.432C174.4 124.568 174.251 124.291 173.984 124.088C173.728 123.875 173.381 123.768 172.944 123.768C172.539 123.768 172.224 123.843 172 123.992C171.787 124.141 171.68 124.349 171.68 124.616C171.68 124.915 171.829 125.144 172.128 125.304C172.427 125.453 172.891 125.608 173.52 125.768C174.16 125.928 174.688 126.093 175.104 126.264C175.52 126.435 175.877 126.701 176.176 127.064C176.485 127.416 176.645 127.885 176.656 128.472C176.656 128.984 176.512 129.443 176.224 129.848C175.947 130.253 175.541 130.573 175.008 130.808C174.485 131.032 173.872 131.144 173.168 131.144Z" fill="white"/>
<path d="M130 188H0V250H130V188Z" fill="#245C77"/>
<path d="M149.1 214.26C149.167 212.927 149.633 211.9 150.5 211.18C151.38 210.447 152.533 210.08 153.96 210.08C154.933 210.08 155.767 210.253 156.46 210.6C157.153 210.933 157.673 211.393 158.02 211.98C158.38 212.553 158.56 213.207 158.56 213.94C158.56 214.78 158.34 215.493 157.9 216.08C157.473 216.653 156.96 217.04 156.36 217.24V217.32C157.133 217.56 157.733 217.987 158.16 218.6C158.6 219.213 158.82 220 158.82 220.96C158.82 221.76 158.633 222.473 158.26 223.1C157.9 223.727 157.36 224.22 156.64 224.58C155.933 224.927 155.08 225.1 154.08 225.1C152.573 225.1 151.347 224.72 150.4 223.96C149.453 223.2 148.953 222.08 148.9 220.6H151.62C151.647 221.253 151.867 221.78 152.28 222.18C152.707 222.567 153.287 222.76 154.02 222.76C154.7 222.76 155.22 222.573 155.58 222.2C155.953 221.813 156.14 221.32 156.14 220.72C156.14 219.92 155.887 219.347 155.38 219C154.873 218.653 154.087 218.48 153.02 218.48H152.44V216.18H153.02C154.913 216.18 155.86 215.547 155.86 214.28C155.86 213.707 155.687 213.26 155.34 212.94C155.007 212.62 154.52 212.46 153.88 212.46C153.253 212.46 152.767 212.633 152.42 212.98C152.087 213.313 151.893 213.74 151.84 214.26H149.1ZM160.713 214C160.713 212.987 161.006 212.193 161.593 211.62C162.193 211.047 162.959 210.76 163.893 210.76C164.826 210.76 165.586 211.047 166.173 211.62C166.773 212.193 167.073 212.987 167.073 214C167.073 215.027 166.773 215.827 166.173 216.4C165.586 216.973 164.826 217.26 163.893 217.26C162.959 217.26 162.193 216.973 161.593 216.4C161.006 215.827 160.713 215.027 160.713 214ZM173.553 211L165.693 225H162.973L170.813 211H173.553ZM163.873 212.44C163.139 212.44 162.773 212.96 162.773 214C162.773 215.053 163.139 215.58 163.873 215.58C164.233 215.58 164.513 215.453 164.713 215.2C164.913 214.933 165.013 214.533 165.013 214C165.013 212.96 164.633 212.44 163.873 212.44ZM169.493 221.98C169.493 220.953 169.786 220.16 170.373 219.6C170.973 219.027 171.739 218.74 172.673 218.74C173.606 218.74 174.359 219.027 174.933 219.6C175.519 220.16 175.813 220.953 175.813 221.98C175.813 223.007 175.519 223.807 174.933 224.38C174.359 224.953 173.606 225.24 172.673 225.24C171.726 225.24 170.959 224.953 170.373 224.38C169.786 223.807 169.493 223.007 169.493 221.98ZM172.653 220.42C171.893 220.42 171.513 220.94 171.513 221.98C171.513 223.033 171.893 223.56 172.653 223.56C173.399 223.56 173.773 223.033 173.773 221.98C173.773 220.94 173.399 220.42 172.653 220.42Z" fill="#1F1F26"/>
<path d="M19.9604 224.112C19.1817 224.112 18.4777 223.979 17.8484 223.712C17.2297 223.445 16.7391 223.061 16.3764 222.56C16.0137 222.059 15.8271 221.467 15.8164 220.784H18.2164C18.2484 221.243 18.4084 221.605 18.6964 221.872C18.9951 222.139 19.4004 222.272 19.9124 222.272C20.4351 222.272 20.8457 222.149 21.1444 221.904C21.4431 221.648 21.5924 221.317 21.5924 220.912C21.5924 220.581 21.4911 220.309 21.2884 220.096C21.0857 219.883 20.8297 219.717 20.5204 219.6C20.2217 219.472 19.8057 219.333 19.2724 219.184C18.5471 218.971 17.9551 218.763 17.4964 218.56C17.0484 218.347 16.6591 218.032 16.3284 217.616C16.0084 217.189 15.8484 216.624 15.8484 215.92C15.8484 215.259 16.0137 214.683 16.3444 214.192C16.6751 213.701 17.1391 213.328 17.7364 213.072C18.3337 212.805 19.0164 212.672 19.7844 212.672C20.9364 212.672 21.8697 212.955 22.5844 213.52C23.3097 214.075 23.7097 214.853 23.7844 215.856H21.3204C21.2991 215.472 21.1337 215.157 20.8244 214.912C20.5257 214.656 20.1257 214.528 19.6244 214.528C19.1871 214.528 18.8351 214.64 18.5684 214.864C18.3124 215.088 18.1844 215.413 18.1844 215.84C18.1844 216.139 18.2804 216.389 18.4724 216.592C18.6751 216.784 18.9204 216.944 19.2084 217.072C19.5071 217.189 19.9231 217.328 20.4564 217.488C21.1817 217.701 21.7737 217.915 22.2324 218.128C22.6911 218.341 23.0857 218.661 23.4164 219.088C23.7471 219.515 23.9124 220.075 23.9124 220.768C23.9124 221.365 23.7577 221.92 23.4484 222.432C23.1391 222.944 22.6857 223.355 22.0884 223.664C21.4911 223.963 20.7817 224.112 19.9604 224.112ZM25.2784 219.536C25.2784 218.64 25.4544 217.845 25.8064 217.152C26.1691 216.459 26.6544 215.925 27.2624 215.552C27.8811 215.179 28.5691 214.992 29.3264 214.992C29.9877 214.992 30.5637 215.125 31.0544 215.392C31.5557 215.659 31.9557 215.995 32.2544 216.4V215.136H34.5104V224H32.2544V222.704C31.9664 223.12 31.5664 223.467 31.0544 223.744C30.5531 224.011 29.9717 224.144 29.3104 224.144C28.5637 224.144 27.8811 223.952 27.2624 223.568C26.6544 223.184 26.1691 222.645 25.8064 221.952C25.4544 221.248 25.2784 220.443 25.2784 219.536ZM32.2544 219.568C32.2544 219.024 32.1477 218.56 31.9344 218.176C31.7211 217.781 31.4331 217.483 31.0704 217.28C30.7077 217.067 30.3184 216.96 29.9024 216.96C29.4864 216.96 29.1024 217.061 28.7504 217.264C28.3984 217.467 28.1104 217.765 27.8864 218.16C27.6731 218.544 27.5664 219.003 27.5664 219.536C27.5664 220.069 27.6731 220.539 27.8864 220.944C28.1104 221.339 28.3984 221.643 28.7504 221.856C29.1131 222.069 29.4971 222.176 29.9024 222.176C30.3184 222.176 30.7077 222.075 31.0704 221.872C31.4331 221.659 31.7211 221.36 31.9344 220.976C32.1477 220.581 32.2544 220.112 32.2544 219.568ZM40.3942 221.936L42.6342 215.136H45.0182L41.7382 224H39.0182L35.7542 215.136H38.1542L40.3942 221.936ZM47.4123 214.08C47.0176 214.08 46.6869 213.957 46.4203 213.712C46.1643 213.456 46.0363 213.141 46.0363 212.768C46.0363 212.395 46.1643 212.085 46.4203 211.84C46.6869 211.584 47.0176 211.456 47.4123 211.456C47.8069 211.456 48.1323 211.584 48.3883 211.84C48.6549 212.085 48.7883 212.395 48.7883 212.768C48.7883 213.141 48.6549 213.456 48.3883 213.712C48.1323 213.957 47.8069 214.08 47.4123 214.08ZM48.5163 215.136V224H46.2763V215.136H48.5163ZM55.6414 215.008C56.6974 215.008 57.5507 215.344 58.2014 216.016C58.8521 216.677 59.1774 217.605 59.1774 218.8V224H56.9374V219.104C56.9374 218.4 56.7614 217.861 56.4094 217.488C56.0574 217.104 55.5774 216.912 54.9694 216.912C54.3507 216.912 53.8601 217.104 53.4974 217.488C53.1454 217.861 52.9694 218.4 52.9694 219.104V224H50.7294V215.136H52.9694V216.24C53.2681 215.856 53.6467 215.557 54.1054 215.344C54.5747 215.12 55.0867 215.008 55.6414 215.008ZM64.7795 214.992C65.4409 214.992 66.0222 215.125 66.5235 215.392C67.0249 215.648 67.4195 215.984 67.7075 216.4V215.136H69.9635V224.064C69.9635 224.885 69.7982 225.616 69.4675 226.256C69.1369 226.907 68.6409 227.419 67.9795 227.792C67.3182 228.176 66.5182 228.368 65.5795 228.368C64.3209 228.368 63.2862 228.075 62.4755 227.488C61.6755 226.901 61.2222 226.101 61.1155 225.088H63.3395C63.4569 225.493 63.7075 225.813 64.0915 226.048C64.4862 226.293 64.9609 226.416 65.5155 226.416C66.1662 226.416 66.6942 226.219 67.0995 225.824C67.5049 225.44 67.7075 224.853 67.7075 224.064V222.688C67.4195 223.104 67.0195 223.451 66.5075 223.728C66.0062 224.005 65.4302 224.144 64.7795 224.144C64.0329 224.144 63.3502 223.952 62.7315 223.568C62.1129 223.184 61.6222 222.645 61.2595 221.952C60.9075 221.248 60.7315 220.443 60.7315 219.536C60.7315 218.64 60.9075 217.845 61.2595 217.152C61.6222 216.459 62.1075 215.925 62.7155 215.552C63.3342 215.179 64.0222 214.992 64.7795 214.992ZM67.7075 219.568C67.7075 219.024 67.6009 218.56 67.3875 218.176C67.1742 217.781 66.8862 217.483 66.5235 217.28C66.1609 217.067 65.7715 216.96 65.3555 216.96C64.9395 216.96 64.5555 217.061 64.2035 217.264C63.8515 217.467 63.5635 217.765 63.3395 218.16C63.1262 218.544 63.0195 219.003 63.0195 219.536C63.0195 220.069 63.1262 220.539 63.3395 220.944C63.5635 221.339 63.8515 221.643 64.2035 221.856C64.5662 222.069 64.9502 222.176 65.3555 222.176C65.7715 222.176 66.1609 222.075 66.5235 221.872C66.8862 221.659 67.1742 221.36 67.3875 220.976C67.6009 220.581 67.7075 220.112 67.7075 219.568ZM75.5433 224.144C74.8179 224.144 74.1673 224.016 73.5913 223.76C73.0153 223.493 72.5566 223.136 72.2153 222.688C71.8846 222.24 71.7033 221.744 71.6713 221.2H73.9273C73.9699 221.541 74.1353 221.824 74.4233 222.048C74.7219 222.272 75.0899 222.384 75.5273 222.384C75.9539 222.384 76.2846 222.299 76.5193 222.128C76.7646 221.957 76.8873 221.739 76.8873 221.472C76.8873 221.184 76.7379 220.971 76.4393 220.832C76.1513 220.683 75.6873 220.523 75.0473 220.352C74.3859 220.192 73.8419 220.027 73.4153 219.856C72.9993 219.685 72.6366 219.424 72.3273 219.072C72.0286 218.72 71.8793 218.245 71.8793 217.648C71.8793 217.157 72.0179 216.709 72.2953 216.304C72.5833 215.899 72.9886 215.579 73.5113 215.344C74.0446 215.109 74.6686 214.992 75.3833 214.992C76.4393 214.992 77.2819 215.259 77.9113 215.792C78.5406 216.315 78.8873 217.024 78.9513 217.92H76.8073C76.7753 217.568 76.6259 217.291 76.3593 217.088C76.1033 216.875 75.7566 216.768 75.3193 216.768C74.9139 216.768 74.5993 216.843 74.3753 216.992C74.1619 217.141 74.0553 217.349 74.0553 217.616C74.0553 217.915 74.2046 218.144 74.5033 218.304C74.8019 218.453 75.2659 218.608 75.8953 218.768C76.5353 218.928 77.0633 219.093 77.4793 219.264C77.8953 219.435 78.2526 219.701 78.5513 220.064C78.8606 220.416 79.0206 220.885 79.0313 221.472C79.0313 221.984 78.8873 222.443 78.5993 222.848C78.3219 223.253 77.9166 223.573 77.3833 223.808C76.8606 224.032 76.2473 224.144 75.5433 224.144ZM91.5305 221.872H87.0825L86.3465 224H83.9945L88.0105 212.816H90.6185L94.6345 224H92.2665L91.5305 221.872ZM90.9225 220.08L89.3065 215.408L87.6905 220.08H90.9225ZM102.135 208.848L97.8157 226.896H95.6237L99.9437 208.848H102.135ZM103.373 218.4C103.373 217.301 103.618 216.32 104.109 215.456C104.61 214.581 105.287 213.904 106.141 213.424C107.005 212.933 107.97 212.688 109.037 212.688C110.285 212.688 111.378 213.008 112.317 213.648C113.255 214.288 113.911 215.173 114.285 216.304H111.709C111.453 215.771 111.09 215.371 110.621 215.104C110.162 214.837 109.629 214.704 109.021 214.704C108.37 214.704 107.789 214.859 107.277 215.168C106.775 215.467 106.381 215.893 106.093 216.448C105.815 217.003 105.677 217.653 105.677 218.4C105.677 219.136 105.815 219.787 106.093 220.352C106.381 220.907 106.775 221.339 107.277 221.648C107.789 221.947 108.37 222.096 109.021 222.096C109.629 222.096 110.162 221.963 110.621 221.696C111.09 221.419 111.453 221.013 111.709 220.48H114.285C113.911 221.621 113.255 222.512 112.317 223.152C111.389 223.781 110.295 224.096 109.037 224.096C107.97 224.096 107.005 223.856 106.141 223.376C105.287 222.885 104.61 222.208 104.109 221.344C103.618 220.48 103.373 219.499 103.373 218.4Z" fill="white"/>
<path d="M452 0H0V62H452V0Z" fill="#1DA0DB"/>
<path d="M464.648 28.2961V24.4801H471.296V42.0001H467.024V28.2961H464.648ZM474.103 33.0001C474.103 30.2481 474.631 28.0801 475.687 26.4961C476.759 24.9121 478.479 24.1201 480.847 24.1201C483.215 24.1201 484.927 24.9121 485.983 26.4961C487.055 28.0801 487.591 30.2481 487.591 33.0001C487.591 35.7841 487.055 37.9681 485.983 39.5521C484.927 41.1361 483.215 41.9281 480.847 41.9281C478.479 41.9281 476.759 41.1361 475.687 39.5521C474.631 37.9681 474.103 35.7841 474.103 33.0001ZM483.559 33.0001C483.559 31.3841 483.383 30.1441 483.031 29.2801C482.679 28.4001 481.951 27.9601 480.847 27.9601C479.743 27.9601 479.015 28.4001 478.663 29.2801C478.311 30.1441 478.135 31.3841 478.135 33.0001C478.135 34.0881 478.199 34.9921 478.327 35.7121C478.455 36.4161 478.711 36.9921 479.095 37.4401C479.495 37.8721 480.079 38.0881 480.847 38.0881C481.615 38.0881 482.191 37.8721 482.575 37.4401C482.975 36.9921 483.239 36.4161 483.367 35.7121C483.495 34.9921 483.559 34.0881 483.559 33.0001ZM489.424 28.8961C489.424 27.6001 489.792 26.6001 490.528 25.8961C491.28 25.1921 492.248 24.8401 493.432 24.8401C494.616 24.8401 495.576 25.1921 496.312 25.8961C497.048 26.6001 497.416 27.6001 497.416 28.8961C497.416 30.1921 497.048 31.1921 496.312 31.8961C495.576 32.6001 494.616 32.9521 493.432 32.9521C492.248 32.9521 491.28 32.6001 490.528 31.8961C489.792 31.1921 489.424 30.1921 489.424 28.8961ZM505.72 25.1041L496.48 42.0001H492.52L501.76 25.1041H505.72ZM493.408 27.2401C492.64 27.2401 492.256 27.7921 492.256 28.8961C492.256 29.9841 492.64 30.5281 493.408 30.5281C493.776 30.5281 494.064 30.3921 494.272 30.1201C494.48 29.8481 494.584 29.4401 494.584 28.8961C494.584 27.7921 494.192 27.2401 493.408 27.2401ZM500.848 38.2081C500.848 36.9121 501.216 35.9121 501.952 35.2081C502.688 34.5041 503.648 34.1521 504.832 34.1521C506.016 34.1521 506.976 34.5041 507.712 35.2081C508.448 35.9121 508.816 36.9121 508.816 38.2081C508.816 39.5041 508.448 40.5041 507.712 41.2081C506.976 41.9121 506.016 42.2641 504.832 42.2641C503.648 42.2641 502.688 41.9121 501.952 41.2081C501.216 40.5041 500.848 39.5041 500.848 38.2081ZM504.808 36.5521C504.44 36.5521 504.152 36.6881 503.944 36.9601C503.752 37.2321 503.656 37.6481 503.656 38.2081C503.656 39.2961 504.04 39.8401 504.808 39.8401C505.176 39.8401 505.464 39.7041 505.672 39.4321C505.88 39.1601 505.984 38.7521 505.984 38.2081C505.984 37.6641 505.88 37.2561 505.672 36.9841C505.464 36.6961 505.176 36.5521 504.808 36.5521Z" fill="#1EA2DB"/>
<path d="M465.494 10.7271V14.6961C465.494 15.2541 465.629 15.6681 465.899 15.9381C466.175 16.2081 466.556 16.3431 467.042 16.3431C467.522 16.3431 467.897 16.2081 468.167 15.9381C468.443 15.6681 468.581 15.2541 468.581 14.6961V10.7271H469.4V14.6871C469.4 15.2091 469.295 15.6501 469.085 16.0101C468.875 16.3641 468.59 16.6281 468.23 16.8021C467.876 16.9761 467.477 17.0631 467.033 17.0631C466.589 17.0631 466.187 16.9761 465.827 16.8021C465.473 16.6281 465.191 16.3641 464.981 16.0101C464.777 15.6501 464.675 15.2091 464.675 14.6871V10.7271H465.494ZM471.585 12.9771C471.747 12.6951 471.987 12.4611 472.305 12.2751C472.629 12.0831 473.004 11.9871 473.43 11.9871C473.868 11.9871 474.264 12.0921 474.618 12.3021C474.978 12.5121 475.26 12.8091 475.464 13.1931C475.668 13.5711 475.77 14.0121 475.77 14.5161C475.77 15.0141 475.668 15.4581 475.464 15.8481C475.26 16.2381 474.978 16.5411 474.618 16.7571C474.264 16.9731 473.868 17.081 473.43 17.081C473.01 17.081 472.638 16.9881 472.314 16.8021C471.996 16.6101 471.753 16.3731 471.585 16.0911V19.3401H470.766V12.0681H471.585V12.9771ZM474.933 14.5161C474.933 14.1441 474.858 13.8201 474.708 13.5441C474.558 13.2681 474.354 13.0581 474.096 12.9141C473.844 12.7701 473.565 12.6981 473.259 12.6981C472.959 12.6981 472.68 12.7731 472.422 12.9231C472.17 13.0671 471.966 13.2801 471.81 13.5621C471.66 13.8381 471.585 14.1591 471.585 14.5251C471.585 14.8971 471.66 15.2241 471.81 15.5061C471.966 15.7821 472.17 15.9951 472.422 16.1451C472.68 16.2891 472.959 16.3611 473.259 16.3611C473.565 16.3611 473.844 16.2891 474.096 16.1451C474.354 15.9951 474.558 15.7821 474.708 15.5061C474.858 15.2241 474.933 14.8941 474.933 14.5161ZM477.847 12.7431V15.6501C477.847 15.8901 477.898 16.0611 478 16.1631C478.102 16.2591 478.279 16.307 478.531 16.307H479.134V17.0001H478.396C477.94 17.0001 477.598 16.8951 477.37 16.6851C477.142 16.4751 477.028 16.1301 477.028 15.6501V12.7431H476.389V12.0681H477.028V10.8261H477.847V12.0681H479.134V12.7431H477.847ZM482.278 17.081C481.816 17.081 481.396 16.9761 481.018 16.7661C480.646 16.5561 480.352 16.2591 480.136 15.8751C479.926 15.4851 479.821 15.0351 479.821 14.5251C479.821 14.0211 479.929 13.5771 480.145 13.1931C480.367 12.8031 480.667 12.5061 481.045 12.3021C481.423 12.0921 481.846 11.9871 482.314 11.9871C482.782 11.9871 483.205 12.0921 483.583 12.3021C483.961 12.5061 484.258 12.8001 484.474 13.1841C484.696 13.5681 484.807 14.0151 484.807 14.5251C484.807 15.0351 484.693 15.4851 484.465 15.8751C484.243 16.2591 483.94 16.5561 483.556 16.7661C483.172 16.9761 482.746 17.081 482.278 17.081ZM482.278 16.3611C482.572 16.3611 482.848 16.292 483.106 16.154C483.364 16.016 483.571 15.8091 483.727 15.5331C483.889 15.2571 483.97 14.9211 483.97 14.5251C483.97 14.1291 483.892 13.7931 483.736 13.5171C483.58 13.2411 483.376 13.0371 483.124 12.9051C482.872 12.7671 482.599 12.6981 482.305 12.6981C482.005 12.6981 481.729 12.7671 481.477 12.9051C481.231 13.0371 481.033 13.2411 480.883 13.5171C480.733 13.7931 480.658 14.1291 480.658 14.5251C480.658 14.9271 480.73 15.2661 480.874 15.5421C481.024 15.8181 481.222 16.0251 481.468 16.1631C481.714 16.2951 481.984 16.3611 482.278 16.3611Z" fill="#1EA2DB"/>
<path d="M20.0163 36.3361H25.5362V39.0001H16.6562V22.2481H20.0163V36.3361ZM29.3759 24.1201C28.7839 24.1201 28.2878 23.9361 27.8878 23.5681C27.5038 23.1841 27.3118 22.7121 27.3118 22.1521C27.3118 21.5921 27.5038 21.1281 27.8878 20.7601C28.2878 20.3761 28.7839 20.1841 29.3759 20.1841C29.9679 20.1841 30.4558 20.3761 30.8398 20.7601C31.2398 21.1281 31.4398 21.5921 31.4398 22.1521C31.4398 22.7121 31.2398 23.1841 30.8398 23.5681C30.4558 23.9361 29.9679 24.1201 29.3759 24.1201ZM31.0319 25.7041V39.0001H27.6719V25.7041H31.0319ZM33.4876 32.3281C33.4876 31.0001 33.7595 29.8241 34.3035 28.8001C34.8635 27.7601 35.6155 26.9521 36.5595 26.3761C37.5035 25.8001 38.5435 25.5121 39.6795 25.5121C40.6235 25.5121 41.4556 25.6961 42.1756 26.0641C42.9116 26.4161 43.5036 26.8721 43.9516 27.4321V25.7041H47.3356V45.3361H43.9516V37.1761C43.5036 37.7521 42.9035 38.2321 42.1515 38.6161C41.3995 39.0001 40.5515 39.1921 39.6075 39.1921C38.4875 39.1921 37.4555 38.9041 36.5115 38.3281C35.5835 37.7361 34.8475 36.9201 34.3035 35.8801C33.7595 34.8401 33.4876 33.6561 33.4876 32.3281ZM43.9516 32.3521C43.9516 31.5361 43.7835 30.8321 43.4475 30.2401C43.1115 29.6481 42.6716 29.2001 42.1276 28.8961C41.5996 28.5921 41.0316 28.4401 40.4236 28.4401C39.8316 28.4401 39.2635 28.5921 38.7195 28.8961C38.1915 29.2001 37.7596 29.6481 37.4236 30.2401C37.0876 30.8161 36.9195 31.5121 36.9195 32.3281C36.9195 33.1441 37.0876 33.8561 37.4236 34.4641C37.7596 35.0561 38.1915 35.5041 38.7195 35.8081C39.2635 36.1121 39.8316 36.2641 40.4236 36.2641C41.0316 36.2641 41.5996 36.1121 42.1276 35.8081C42.6716 35.5041 43.1115 35.0561 43.4475 34.4641C43.7835 33.8721 43.9516 33.1681 43.9516 32.3521ZM63.1692 25.7041V39.0001H59.7851V37.3201C59.3531 37.8961 58.7851 38.3521 58.0811 38.6881C57.3931 39.0081 56.6411 39.1681 55.8251 39.1681C54.7851 39.1681 53.8651 38.9521 53.0651 38.5201C52.2651 38.0721 51.6332 37.4241 51.1692 36.5761C50.7212 35.7121 50.4971 34.6881 50.4971 33.5041V25.7041H53.8571V33.0241C53.8571 34.0801 54.1211 34.8961 54.6491 35.4721C55.1771 36.0321 55.8972 36.3121 56.8092 36.3121C57.7372 36.3121 58.4651 36.0321 58.9931 35.4721C59.5211 34.8961 59.7851 34.0801 59.7851 33.0241V25.7041H63.1692ZM68.1884 24.1201C67.5964 24.1201 67.1004 23.9361 66.7004 23.5681C66.3164 23.1841 66.1244 22.7121 66.1244 22.1521C66.1244 21.5921 66.3164 21.1281 66.7004 20.7601C67.1004 20.3761 67.5964 20.1841 68.1884 20.1841C68.7804 20.1841 69.2684 20.3761 69.6524 20.7601C70.0524 21.1281 70.2523 21.5921 70.2523 22.1521C70.2523 22.7121 70.0524 23.1841 69.6524 23.5681C69.2684 23.9361 68.7804 24.1201 68.1884 24.1201ZM69.8444 25.7041V39.0001H66.4844V25.7041H69.8444ZM76.5241 36.3361H82.0441V39.0001H73.1641V22.2481H76.5241V36.3361ZM90.0836 39.2161C88.8036 39.2161 87.6517 38.9361 86.6277 38.3761C85.6037 37.8001 84.7957 36.9921 84.2037 35.9521C83.6277 34.9121 83.3397 33.7121 83.3397 32.3521C83.3397 30.9921 83.6357 29.7921 84.2277 28.7521C84.8357 27.7121 85.6597 26.9121 86.6997 26.3521C87.7397 25.7761 88.8996 25.4881 90.1796 25.4881C91.4596 25.4881 92.6197 25.7761 93.6597 26.3521C94.6997 26.9121 95.5157 27.7121 96.1077 28.7521C96.7157 29.7921 97.0197 30.9921 97.0197 32.3521C97.0197 33.7121 96.7076 34.9121 96.0836 35.9521C95.4756 36.9921 94.6437 37.8001 93.5877 38.3761C92.5477 38.9361 91.3796 39.2161 90.0836 39.2161ZM90.0836 36.2881C90.6916 36.2881 91.2597 36.1441 91.7877 35.8561C92.3317 35.5521 92.7636 35.1041 93.0836 34.5121C93.4036 33.9201 93.5637 33.2001 93.5637 32.3521C93.5637 31.0881 93.2276 30.1201 92.5556 29.4481C91.8996 28.7601 91.0917 28.4161 90.1317 28.4161C89.1717 28.4161 88.3636 28.7601 87.7076 29.4481C87.0676 30.1201 86.7477 31.0881 86.7477 32.3521C86.7477 33.6161 87.0597 34.5921 87.6837 35.2801C88.3237 35.9521 89.1236 36.2881 90.0836 36.2881ZM98.6204 32.3041C98.6204 30.9601 98.8844 29.7681 99.4124 28.7281C99.9564 27.6881 100.684 26.8881 101.596 26.3281C102.524 25.7681 103.556 25.4881 104.692 25.4881C105.684 25.4881 106.548 25.6881 107.284 26.0881C108.036 26.4881 108.636 26.9921 109.084 27.6001V25.7041H112.468V39.0001H109.084V37.0561C108.652 37.6801 108.052 38.2001 107.284 38.6161C106.532 39.0161 105.66 39.2161 104.668 39.2161C103.548 39.2161 102.524 38.9281 101.596 38.3521C100.684 37.7761 99.9564 36.9681 99.4124 35.9281C98.8844 34.8721 98.6204 33.6641 98.6204 32.3041ZM109.084 32.3521C109.084 31.5361 108.924 30.8401 108.604 30.2641C108.284 29.6721 107.852 29.2241 107.308 28.9201C106.764 28.6001 106.18 28.4401 105.556 28.4401C104.932 28.4401 104.356 28.5921 103.828 28.8961C103.3 29.2001 102.868 29.6481 102.532 30.2401C102.212 30.8161 102.052 31.5041 102.052 32.3041C102.052 33.1041 102.212 33.8081 102.532 34.4161C102.868 35.0081 103.3 35.4641 103.828 35.7841C104.372 36.1041 104.948 36.2641 105.556 36.2641C106.18 36.2641 106.764 36.1121 107.308 35.8081C107.852 35.4881 108.284 35.0401 108.604 34.4641C108.924 33.8721 109.084 33.1681 109.084 32.3521ZM123.118 25.5121C124.702 25.5121 125.982 26.0161 126.958 27.0241C127.934 28.0161 128.422 29.4081 128.422 31.2001V39.0001H125.062V31.6561C125.062 30.6001 124.798 29.7921 124.27 29.2321C123.742 28.6561 123.022 28.3681 122.11 28.3681C121.182 28.3681 120.446 28.6561 119.902 29.2321C119.374 29.7921 119.11 30.6001 119.11 31.6561V39.0001H115.75V25.7041H119.11V27.3601C119.558 26.7841 120.126 26.3361 120.814 26.0161C121.518 25.6801 122.286 25.5121 123.118 25.5121ZM136.705 39.2161C135.617 39.2161 134.641 39.0241 133.777 38.6401C132.913 38.2401 132.225 37.7041 131.713 37.0321C131.217 36.3601 130.945 35.6161 130.897 34.8001H134.281C134.345 35.3121 134.593 35.7361 135.025 36.0721C135.473 36.4081 136.025 36.5761 136.681 36.5761C137.321 36.5761 137.817 36.4481 138.169 36.1921C138.537 35.9361 138.721 35.6081 138.721 35.2081C138.721 34.7761 138.497 34.4561 138.049 34.2481C137.617 34.0241 136.921 33.7841 135.961 33.5281C134.969 33.2881 134.153 33.0401 133.513 32.7841C132.889 32.5281 132.345 32.1361 131.881 31.6081C131.433 31.0801 131.209 30.3681 131.209 29.4721C131.209 28.7361 131.417 28.0641 131.833 27.4561C132.265 26.8481 132.873 26.3681 133.657 26.0161C134.457 25.6641 135.393 25.4881 136.465 25.4881C138.049 25.4881 139.313 25.8881 140.257 26.6881C141.201 27.4721 141.721 28.5361 141.817 29.8801H138.601C138.553 29.3521 138.329 28.9361 137.929 28.6321C137.545 28.3121 137.025 28.1521 136.369 28.1521C135.761 28.1521 135.289 28.2641 134.953 28.4881C134.633 28.7121 134.473 29.0241 134.473 29.4241C134.473 29.8721 134.697 30.2161 135.145 30.4561C135.593 30.6801 136.289 30.9121 137.233 31.1521C138.193 31.3921 138.985 31.6401 139.609 31.8961C140.233 32.1521 140.769 32.5521 141.217 33.0961C141.681 33.6241 141.921 34.3281 141.937 35.2081C141.937 35.9761 141.721 36.6641 141.289 37.2721C140.873 37.8801 140.265 38.3601 139.465 38.7121C138.681 39.0481 137.761 39.2161 136.705 39.2161Z" fill="white"/>
</svg>
