<svg width="149" height="120" viewBox="0 0 149 120" fill="none" xmlns="http://www.w3.org/2000/svg">
<path opacity="0.2" d="M74.1739 119.674C115.139 119.674 148.348 117.735 148.348 115.344C148.348 112.952 115.139 111.013 74.1739 111.013C33.2088 111.013 0 112.952 0 115.344C0 117.735 33.2088 119.674 74.1739 119.674Z" fill="#F5F5F5"/>
<path d="M130.811 115.344H86.1285C85.506 115.35 84.889 115.227 84.3166 114.983C83.7443 114.738 83.2292 114.376 82.8041 113.921C82.3791 113.467 82.0535 112.928 81.848 112.34C81.6425 111.753 81.5616 111.129 81.6105 110.508L87.8462 15.9899C87.9506 14.6877 88.5362 13.471 89.4889 12.577C90.4416 11.683 91.693 11.1759 92.9992 11.1544H137.678C138.3 11.1482 138.917 11.2716 139.489 11.5167C140.061 11.7619 140.575 12.1233 141 12.5782C141.425 13.033 141.75 13.5712 141.955 14.1586C142.16 14.7459 142.241 15.3696 142.192 15.9899L135.964 110.508C135.86 111.81 135.274 113.027 134.322 113.921C133.369 114.815 132.117 115.322 130.811 115.344Z" fill="#263238"/>
<path d="M140.218 36.5716H134.808C134.658 36.5731 134.509 36.5433 134.371 36.4842C134.233 36.4251 134.109 36.3379 134.006 36.2281C133.904 36.1184 133.825 35.9885 133.776 35.8468C133.726 35.705 133.706 35.5545 133.718 35.4048L134.258 27.218C134.288 26.9067 134.432 26.6175 134.662 26.4057C134.892 26.194 135.192 26.0746 135.505 26.0704H140.91C141.059 26.069 141.206 26.0983 141.342 26.1562C141.479 26.2142 141.602 26.2996 141.705 26.4073C141.807 26.5149 141.886 26.6424 141.937 26.7819C141.988 26.9214 142.009 27.0698 142 27.218L141.461 35.4048C141.436 35.7191 141.295 36.013 141.065 36.2288C140.835 36.4446 140.533 36.5668 140.218 36.5716Z" fill="#263238"/>
<path d="M104.694 9.81543H102.716V10.198H104.694V9.81543Z" fill="#1EA2DB"/>
<path d="M100.279 9.81543H93.0869V10.198H100.279V9.81543Z" fill="#1EA2DB"/>
<path d="M130.13 115.344H85.4476C84.8252 115.35 84.2084 115.226 83.6363 114.981C83.0643 114.736 82.5494 114.375 82.1245 113.92C81.6996 113.465 81.374 112.927 81.1682 112.34C80.9625 111.752 80.8812 111.129 80.9296 110.508L87.1805 15.9899C87.2849 14.6876 87.8706 13.4709 88.8232 12.5769C89.7759 11.683 91.0273 11.1758 92.3336 11.1543H137.016C137.636 11.1519 138.25 11.278 138.819 11.5248C139.387 11.7716 139.899 12.1336 140.32 12.588C140.742 13.0424 141.065 13.5794 141.269 14.1649C141.472 14.7504 141.552 15.3718 141.504 15.9899L135.283 110.508C135.179 111.81 134.593 113.027 133.641 113.921C132.688 114.815 131.436 115.322 130.13 115.344Z" fill="#1EA2DB"/>
<path d="M132.158 104.334H84.8852C84.5316 104.337 84.1811 104.268 83.856 104.128C83.5308 103.989 83.2383 103.784 82.9968 103.526C82.7553 103.267 82.5703 102.962 82.4535 102.628C82.3367 102.294 82.2906 101.94 82.3182 101.587L87.7467 19.299C87.8054 18.5612 88.1362 17.8715 88.6749 17.3639C89.2136 16.8563 89.9218 16.567 90.6618 16.5523H137.946C138.299 16.5485 138.65 16.6184 138.975 16.7576C139.3 16.8967 139.593 17.102 139.834 17.3603C140.076 17.6187 140.261 17.9245 140.378 18.2583C140.494 18.592 140.54 18.9465 140.513 19.299L135.084 101.587C135.025 102.327 134.693 103.018 134.152 103.526C133.611 104.034 132.9 104.322 132.158 104.334Z" fill="white"/>
<path d="M123.34 16.5522H113.952L91.2089 104.334H100.597L123.34 16.5522Z" fill="#FAFAFA"/>
<path d="M131.611 16.5522H126.917L104.174 104.334H108.868L131.611 16.5522Z" fill="#FAFAFA"/>
<path d="M125.375 77.134L115.168 38.5302C114.895 37.5039 114.227 36.6276 113.309 36.0934C112.391 35.5592 111.299 35.4106 110.272 35.6801L86.1247 42.0612L82.9036 92.5051L122.525 82.0345C123.551 81.7598 124.427 81.0902 124.961 80.172C125.495 79.2538 125.644 78.1616 125.375 77.134Z" fill="#F0F0F0"/>
<path opacity="0.2" d="M110.231 110.869C111.458 109.682 111.552 107.79 110.441 106.642C109.331 105.494 107.436 105.525 106.209 106.712C104.982 107.899 104.888 109.792 105.998 110.94C107.109 112.088 109.004 112.056 110.231 110.869Z" fill="white"/>
<path opacity="0.2" d="M115.731 13.6984C115.704 14.0317 115.554 14.3431 115.31 14.5717C115.066 14.8002 114.745 14.9294 114.411 14.9341C114.253 14.9346 114.096 14.9022 113.95 14.8391C113.805 14.776 113.674 14.6835 113.567 14.5675C113.459 14.4514 113.376 14.3143 113.324 14.1647C113.272 14.0151 113.251 13.8564 113.263 13.6984C113.289 13.3648 113.439 13.0529 113.683 12.8242C113.927 12.5955 114.248 12.4666 114.583 12.4628C114.741 12.4623 114.898 12.4946 115.044 12.5577C115.189 12.6208 115.32 12.7133 115.427 12.8294C115.535 12.9455 115.618 13.0826 115.67 13.2322C115.722 13.3817 115.743 13.5405 115.731 13.6984Z" fill="white"/>
<path opacity="0.2" d="M115.172 13.6984C115.159 13.8818 115.077 14.0535 114.943 14.1796C114.809 14.3056 114.633 14.3769 114.449 14.3793C114.361 14.3807 114.274 14.3637 114.193 14.3293C114.113 14.295 114.04 14.2441 113.98 14.1799C113.92 14.1157 113.875 14.0397 113.846 13.9568C113.817 13.8738 113.806 13.7858 113.814 13.6984C113.827 13.5149 113.909 13.3432 114.043 13.2172C114.177 13.0911 114.353 13.0198 114.537 13.0174C114.625 13.016 114.712 13.0331 114.792 13.0674C114.873 13.1018 114.946 13.1527 115.006 13.2168C115.065 13.281 115.111 13.357 115.14 13.44C115.168 13.5229 115.179 13.6109 115.172 13.6984Z" fill="white"/>
<path d="M43.3089 8.92401C44.7359 5.41596 44.2233 1.1428 40.1758 0.186403C39.2839 -0.0433677 38.3506 -0.0609718 37.4507 0.135003C36.5508 0.330977 35.7093 0.735076 34.9937 1.3149C34.2781 1.89473 33.7084 2.63416 33.3301 3.4739C32.9518 4.31363 32.7755 5.23032 32.8154 6.15047C32.9761 9.97604 35.4933 13.1627 31.0824 15.9363C26.6715 18.7098 27.1421 27.0687 35.6731 25.4543C44.2041 23.8399 39.5943 19.452 39.5943 19.452C39.5943 19.452 37.5017 21.1582 36.8284 19.4214C35.9753 17.1719 41.6563 13.0288 43.3089 8.92401Z" fill="#263238"/>
<path d="M28.2978 20.4314L28.1104 20.3893C28.6804 17.8377 29.5755 17.1797 30.5205 16.4834C31.4654 15.7872 32.3606 15.1253 33.0836 12.6158C33.4241 11.4337 33.2098 10.1253 32.9994 8.86289C32.7316 7.25232 32.4562 5.58438 33.2863 4.09241L33.4508 4.18805C32.6551 5.61881 32.9267 7.2485 33.1869 8.83229C33.4011 10.1177 33.623 11.4451 33.2672 12.6579C32.5289 15.2286 31.5648 15.9364 30.6352 16.625C29.7056 17.3136 28.8525 17.9524 28.2978 20.4314Z" fill="#263238"/>
<path d="M54.1736 28.1935C54.2004 28.3236 54.2463 28.5187 54.2883 28.6946L54.4222 29.234C54.5141 29.5975 54.6173 29.9609 54.7245 30.3243C54.9425 31.0474 55.1759 31.778 55.4284 32.4972C55.9333 33.9445 56.5104 35.3656 57.1575 36.7551L57.6395 37.7612C57.7211 37.9411 57.8367 38.1035 57.98 38.2394C58.4099 38.5852 58.9231 38.8121 59.4682 38.8974C60.8986 39.1287 62.3568 39.1287 63.7872 38.8974L64.3037 40.5233C63.9079 40.6977 63.5031 40.851 63.091 40.9824C62.6815 41.1186 62.2652 41.2335 61.8438 41.3267C60.9663 41.5288 60.0657 41.6124 59.1659 41.5753C58.1072 41.5455 57.0778 41.2209 56.1935 40.6381C55.6959 40.2929 55.2763 39.8472 54.9616 39.3297L54.9004 39.2341L54.8622 39.169L54.7857 39.0313L54.6288 38.7635L54.319 38.2203C53.5184 36.7612 52.8155 35.2506 52.2149 33.6985C51.9241 32.9334 51.6372 32.1338 51.4039 31.3266C51.2891 30.9441 51.1743 30.5194 51.071 30.1063C50.9678 29.6931 50.8759 29.3029 50.7918 28.8132L54.1736 28.1935Z" fill="#FFC3BD"/>
<path d="M51.22 22.8452C55.08 24.5667 55.0456 30.3509 55.0456 30.3509L50.979 32.7955C50.979 32.7955 47.9185 28.266 48.148 26.2078C48.3737 24.0617 49.0317 21.8773 51.22 22.8452Z" fill="#1EA2DB"/>
<path opacity="0.2" d="M51.8289 27.7803C50.773 26.713 49.8434 27.9448 48.9941 29.3105C49.5766 30.5182 50.2399 31.6851 50.9796 32.8033L52.6476 31.801C52.9766 30.5271 52.8809 28.8515 51.8289 27.7803Z" fill="black"/>
<path d="M63.3851 39.0427L66.1013 37.6885L66.1319 41.2424C66.1319 41.2424 64.1043 41.5944 62.7539 40.1713L63.3851 39.0427Z" fill="#FFC3BD"/>
<path d="M69.0206 38.3197L68.5539 40.9593L66.1323 41.2424L66.1017 37.6885L69.0206 38.3197Z" fill="#FFC3BD"/>
<path d="M38.5234 112.52L41.8823 112.842L43.4469 105.026L40.0881 104.705L38.5234 112.52Z" fill="#FFC3BD"/>
<path d="M16.499 103.358L19.2305 105.347L23.7867 98.8822L21.0515 96.8929L16.499 103.358Z" fill="#FFC3BD"/>
<path d="M20.2331 104.104L17.9837 101.025C17.9463 100.97 17.89 100.931 17.8258 100.916C17.7615 100.9 17.6937 100.909 17.6356 100.94L14.9385 102.371C14.8719 102.41 14.8141 102.462 14.7691 102.525C14.7241 102.587 14.6928 102.659 14.6772 102.734C14.6617 102.81 14.6623 102.887 14.679 102.963C14.6957 103.038 14.7281 103.109 14.774 103.171C15.5774 104.23 16.0173 104.701 17.0082 106.059C17.6203 106.893 18.8444 108.825 19.6861 109.976C20.5277 111.128 21.7098 110.359 21.4649 109.804C20.3555 107.314 20.3173 105.856 20.4014 104.689C20.4175 104.48 20.3577 104.273 20.2331 104.104Z" fill="#263238"/>
<path d="M42.3261 111.828H38.2939C38.2214 111.828 38.151 111.852 38.0936 111.896C38.0362 111.941 37.995 112.003 37.9764 112.073L37.1004 115.252C37.0789 115.327 37.0753 115.406 37.0899 115.483C37.1045 115.56 37.1369 115.632 37.1845 115.694C37.232 115.757 37.2935 115.807 37.364 115.841C37.4344 115.875 37.5118 115.892 37.59 115.891C39.0131 115.891 39.6865 115.891 41.4577 115.891H46.8785C48.3514 115.891 48.6574 114.403 48.0491 114.265C45.3177 113.66 43.7416 112.826 42.8961 112.031C42.7386 111.894 42.5349 111.821 42.3261 111.828Z" fill="#263238"/>
<path opacity="0.2" d="M43.4467 105.03L42.6395 109.058H39.2156L40.0878 104.709L43.4467 105.03Z" fill="black"/>
<path opacity="0.2" d="M21.052 96.8929L23.7873 98.8861L21.4384 102.218L18.7031 100.225L21.052 96.8929Z" fill="black"/>
<path d="M52.8113 25.8942C52.5741 28.4765 51.7171 33.5454 49.2114 43.4498L35.4623 42.26C36.1241 37.0993 36.434 33.7558 35.141 23.9853C35.0989 23.6623 35.1237 23.3342 35.2139 23.0212C35.304 22.7083 35.4575 22.4172 35.6649 22.166C35.8722 21.9149 36.129 21.7091 36.4193 21.5614C36.7095 21.4137 37.0271 21.3272 37.3521 21.3074C38.343 21.2538 39.5212 21.2194 40.7033 21.2653C42.7946 21.2966 44.881 21.4769 46.9467 21.8047C48.1594 22.0228 49.4524 22.3365 50.5044 22.6119C51.2149 22.798 51.8365 23.2298 52.2588 23.8307C52.6811 24.4316 52.8768 25.1627 52.8113 25.8942Z" fill="#1EA2DB"/>
<path opacity="0.2" d="M35.4933 26.8469C35.6693 28.3771 35.7994 29.7428 35.8759 30.967C37.1421 30.856 38.0756 29.4674 38.1712 26.5638C37.6968 25.1598 36.5683 25.6686 35.4933 26.8469Z" fill="black"/>
<path d="M49.2116 43.4497C49.2116 43.4497 53.8635 64.0313 50.7418 78.5416C48.6645 88.2586 44.0394 107.888 44.0394 107.888L38.1748 107.738C38.1748 107.738 40.9751 87.1377 42.1496 79.0466C44.158 65.1904 39.1274 42.5928 39.1274 42.5928L49.2116 43.4497Z" fill="#263238"/>
<path opacity="0.2" d="M43.8484 47.6082L40.9142 52.2333C41.7977 57.7172 42.3585 63.2483 42.5936 68.798C46.7176 61.4146 44.7627 51.5141 43.8484 47.6082Z" fill="black"/>
<path d="M44.8813 108.194L37.6357 108.01L38.0565 105.784L45.4475 106.132L44.8813 108.194Z" fill="#1EA2DB"/>
<path d="M46.2054 43.2317C46.2054 43.2317 43.4778 65.0566 37.5596 76.9732C32.7815 86.5984 22.7853 101.897 22.7853 101.897L19.1318 98.9702C19.1318 98.9702 25.3828 82.0498 28.9329 75.6572C37.6438 59.9724 30.5244 48.0175 35.4632 42.26L46.2054 43.2317Z" fill="#263238"/>
<path d="M103.419 23.8092L38.3935 51.1301C36.3521 51.9878 35.3926 54.338 36.2502 56.3793L51.7163 93.1897C52.574 95.231 54.9242 96.1906 56.9655 95.3329L121.991 68.012C124.033 67.1543 124.992 64.8041 124.134 62.7628L108.668 25.9524C107.811 23.9111 105.46 22.9515 103.419 23.8092Z" fill="#1EA2DB"/>
<path opacity="0.1" d="M103.419 23.8092L38.3935 51.1301C36.3521 51.9878 35.3926 54.338 36.2502 56.3793L51.7163 93.1897C52.574 95.231 54.9242 96.1906 56.9655 95.3329L121.991 68.012C124.033 67.1543 124.992 64.8041 124.134 62.7628L108.668 25.9524C107.811 23.9111 105.46 22.9515 103.419 23.8092Z" fill="black"/>
<path opacity="0.2" d="M56.33 49.4915L43.5979 54.841C42.6162 55.2535 42.1547 56.3837 42.5672 57.3655L45.2508 63.7527C45.6633 64.7344 46.7935 65.1959 47.7752 64.7834L60.5074 59.4339C61.4891 59.0214 61.9505 57.8912 61.5381 56.9095L58.8544 50.5223C58.442 49.5405 57.3117 49.0791 56.33 49.4915Z" fill="white"/>
<path opacity="0.4" d="M65.2643 74.7397L52.7896 79.981C52.4215 80.1357 52.2484 80.5596 52.4031 80.9277L53.35 83.1814C53.5047 83.5495 53.9285 83.7226 54.2967 83.5679L66.7714 78.3266C67.1395 78.1719 67.3125 77.7481 67.1579 77.3799L66.211 75.1262C66.0563 74.7581 65.6325 74.585 65.2643 74.7397Z" fill="white"/>
<path opacity="0.4" d="M81.4938 67.9225L69.0191 73.1638C68.651 73.3185 68.4779 73.7423 68.6326 74.1104L69.5795 76.3641C69.7342 76.7323 70.158 76.9053 70.5262 76.7506L83.0009 71.5093C83.369 71.3547 83.5421 70.9308 83.3874 70.5627L82.4405 68.309C82.2858 67.9409 81.862 67.7678 81.4938 67.9225Z" fill="white"/>
<path opacity="0.4" d="M97.7204 61.1051L85.2457 66.3464C84.8775 66.5011 84.7045 66.9249 84.8592 67.293L85.8061 69.5468C85.9608 69.9149 86.3846 70.088 86.7527 69.9333L99.2274 64.6919C99.5956 64.5373 99.7686 64.1134 99.6139 63.7453L98.667 61.4916C98.5124 61.1234 98.0885 60.9504 97.7204 61.1051Z" fill="white"/>
<path opacity="0.4" d="M113.951 54.2878L101.476 59.5291C101.108 59.6838 100.935 60.1076 101.09 60.4758L102.037 62.7295C102.191 63.0976 102.615 63.2707 102.983 63.116L115.458 57.8747C115.826 57.72 115.999 57.2962 115.844 56.928L114.898 54.6743C114.743 54.3062 114.319 54.1332 113.951 54.2878Z" fill="white"/>
<g opacity="0.6">
<path opacity="0.6" d="M102.664 41.6526C105.563 40.9688 107.359 38.064 106.676 35.1645C105.992 32.265 103.087 30.4688 100.187 31.1526C97.2879 31.8364 95.4917 34.7413 96.1756 37.6408C96.8594 40.5403 99.7642 42.3365 102.664 41.6526Z" fill="#263238"/>
<path opacity="0.6" d="M99.2043 42.3719C100.991 39.9883 100.508 36.6074 98.1242 34.8204C95.7407 33.0334 92.3597 33.517 90.5727 35.9005C88.7857 38.2841 89.2693 41.665 91.6528 43.452C94.0364 45.239 97.4173 44.7554 99.2043 42.3719Z" fill="white"/>
</g>
<path d="M23.1678 102.302L18.4814 98.7561L19.6329 96.698L24.6138 100.562L23.1678 102.302Z" fill="#1EA2DB"/>
<path d="M35.3246 41.4375L34.5977 42.6158C34.5403 42.7038 34.6474 42.8147 34.8043 42.8262L49.2267 44.0733C49.3491 44.0733 49.4562 44.0312 49.4715 43.9547L49.7011 42.7344C49.7202 42.6502 49.6169 42.5699 49.483 42.5584L35.5579 41.3533C35.5151 41.3465 35.4712 41.3506 35.4304 41.3653C35.3896 41.38 35.3532 41.4049 35.3246 41.4375Z" fill="#1EA2DB"/>
<path opacity="0.5" d="M35.3246 41.4375L34.5977 42.6158C34.5403 42.7038 34.6474 42.8147 34.8043 42.8262L49.2267 44.0733C49.3491 44.0733 49.4562 44.0312 49.4715 43.9547L49.7011 42.7344C49.7202 42.6502 49.6169 42.5699 49.483 42.5584L35.5579 41.3533C35.5151 41.3465 35.4712 41.3506 35.4304 41.3653C35.3896 41.38 35.3532 41.4049 35.3246 41.4375Z" fill="black"/>
<path d="M37.0653 43.1551L36.6828 43.1245C36.6101 43.1245 36.5566 43.0748 36.5642 43.0289L36.8779 41.4451C36.8779 41.3953 36.9544 41.3647 37.0309 41.3724L37.4135 41.403C37.49 41.403 37.5435 41.4527 37.532 41.4986L37.2184 43.0824C37.2031 43.1283 37.1342 43.1628 37.0653 43.1551Z" fill="#1EA2DB"/>
<path d="M48.1601 44.1155L47.7775 44.0849C47.7048 44.0849 47.6513 44.0351 47.6589 43.9892L47.9726 42.4054C47.9864 42.378 48.0089 42.356 48.0366 42.3428C48.0644 42.3296 48.0957 42.3261 48.1256 42.3328L48.5082 42.3634C48.5847 42.3634 48.6383 42.4131 48.6268 42.459L48.3131 44.0428C48.3093 44.0964 48.2404 44.1231 48.1601 44.1155Z" fill="#1EA2DB"/>
<path d="M42.613 43.6373L42.2305 43.6029C42.154 43.6029 42.1004 43.5532 42.1119 43.5073L42.4256 41.9235C42.4256 41.8776 42.5021 41.8431 42.5748 41.8508L42.9573 41.8852C43.03 41.8852 43.0836 41.935 43.0759 41.9809L42.7622 43.5646C42.7546 43.6106 42.6896 43.6412 42.613 43.6373Z" fill="#1EA2DB"/>
<path d="M21.09 105.807C21.047 105.814 21.003 105.814 20.96 105.807C20.543 105.722 20.1949 105.015 20.0112 104.601C20.004 104.591 20.0001 104.578 20.0001 104.565C20.0001 104.552 20.004 104.54 20.0112 104.529C20.0212 104.521 20.0332 104.517 20.0457 104.517C20.0581 104.517 20.0702 104.521 20.0801 104.529C20.2102 104.575 21.3502 105.015 21.4382 105.432C21.4487 105.477 21.4464 105.524 21.4316 105.568C21.4167 105.612 21.3898 105.651 21.354 105.68C21.2817 105.749 21.1892 105.794 21.09 105.807ZM20.1987 104.689C20.4588 105.26 20.7496 105.623 20.9867 105.669C21.0403 105.677 21.095 105.671 21.1459 105.653C21.1967 105.634 21.242 105.603 21.2775 105.562C21.2966 105.547 21.3111 105.528 21.3193 105.505C21.3275 105.483 21.3289 105.459 21.3234 105.435C21.2698 105.179 20.5927 104.85 20.1987 104.689Z" fill="#1EA2DB"/>
<path d="M21.1245 104.743C20.7608 104.788 20.3917 104.749 20.0457 104.628C20.0351 104.624 20.026 104.616 20.0193 104.607C20.0125 104.597 20.0085 104.586 20.0074 104.575C20.0059 104.563 20.0076 104.551 20.0123 104.54C20.0171 104.53 20.0246 104.52 20.0342 104.513C20.0686 104.491 20.8567 103.917 21.3311 104.024C21.3897 104.035 21.4451 104.059 21.4934 104.094C21.5416 104.129 21.5816 104.174 21.6103 104.227C21.6482 104.275 21.6688 104.334 21.6688 104.395C21.6688 104.456 21.6482 104.515 21.6103 104.563C21.4742 104.678 21.3024 104.741 21.1245 104.743ZM20.2331 104.54C20.6157 104.651 21.3311 104.659 21.507 104.464C21.5377 104.433 21.5644 104.383 21.507 104.284C21.4882 104.248 21.4615 104.218 21.4291 104.194C21.3966 104.17 21.3592 104.154 21.3196 104.146C20.9982 104.081 20.4474 104.399 20.2331 104.54Z" fill="#1EA2DB"/>
<path d="M44.1158 112.478C43.7449 112.469 43.3758 112.423 43.014 112.341C43.0017 112.335 42.9913 112.327 42.9839 112.315C42.9766 112.304 42.9727 112.291 42.9727 112.278C42.9727 112.264 42.9766 112.251 42.9839 112.24C42.9913 112.229 43.0017 112.22 43.014 112.215C43.1823 112.134 44.6437 111.449 45.0109 111.71C45.045 111.731 45.0722 111.762 45.0891 111.799C45.1061 111.835 45.1121 111.876 45.1066 111.916C45.1057 111.991 45.0872 112.065 45.0527 112.131C45.0181 112.198 44.9684 112.255 44.9076 112.299C44.6696 112.442 44.3921 112.505 44.1158 112.478ZM43.2435 112.249C43.6796 112.329 44.483 112.436 44.812 112.188C44.8547 112.154 44.8897 112.112 44.9148 112.064C44.9398 112.016 44.9544 111.963 44.9574 111.908C44.9574 111.855 44.9574 111.832 44.9229 111.82C44.7164 111.679 43.8518 111.981 43.2435 112.249Z" fill="#1EA2DB"/>
<path d="M43.03 112.341C43.0164 112.346 43.0014 112.346 42.9879 112.341C42.978 112.333 42.9705 112.323 42.9664 112.312C42.9623 112.3 42.9618 112.288 42.9649 112.276C42.9649 112.211 43.3092 110.768 44.1126 110.86C44.3115 110.887 44.3651 110.983 44.3766 111.063C44.4263 111.445 43.5043 112.172 43.0606 112.352L43.03 112.341ZM44.0323 110.975C43.5235 110.975 43.2289 111.817 43.1294 112.153C43.6076 111.901 44.2771 111.3 44.235 111.067C44.235 111.048 44.235 110.994 44.0858 110.979L44.0323 110.975Z" fill="#1EA2DB"/>
<path d="M36.9849 26.9157L36.7822 27.2026L36.5603 27.5278C36.4111 27.7497 36.2619 27.9754 36.1203 28.2088C35.8296 28.6678 35.5656 29.146 35.2978 29.6242C34.7691 30.5861 34.3039 31.5816 33.9053 32.6043C33.5035 33.621 33.1674 34.6624 32.8992 35.7222L32.7194 36.4873C32.7194 36.4643 32.6965 36.5447 32.7385 36.69C32.8702 37.0989 33.0623 37.4857 33.3085 37.8377C33.9265 38.7262 34.6203 39.5594 35.382 40.3281C36.1471 41.1392 36.9964 41.9234 37.8418 42.7038C38.6873 43.4842 39.5748 44.2341 40.4624 44.9724C41.3499 45.7107 42.2565 46.4567 43.1403 47.1759L42.1839 48.5876C40.1347 47.3721 38.1562 46.0412 36.2581 44.6013C35.3017 43.8821 34.3644 43.1246 33.4577 42.306C32.507 41.4727 31.6396 40.549 30.8678 39.5477C30.4052 38.9598 30.0433 38.2992 29.7967 37.5929C29.6292 37.1013 29.5731 36.5786 29.6322 36.0626V35.9555V35.8981L29.6513 35.7834L29.6896 35.55L29.7699 35.0871C29.995 33.855 30.3121 32.6414 30.7186 31.4567C31.1391 30.2778 31.6362 29.1276 32.2068 28.0137C32.4937 27.4551 32.8074 26.9157 33.144 26.384C33.3085 26.1162 33.4807 25.8522 33.6605 25.5882L33.9436 25.2057C34.043 25.0718 34.1272 24.9532 34.2611 24.7887L36.9849 26.9157Z" fill="#FFC3BD"/>
<path d="M36.6451 21.5254C34.0208 22.214 31.4883 28.5759 31.4883 28.5759L34.8854 31.6822C34.8854 31.6822 40.222 26.8161 40.0422 24.6202C39.893 22.7534 38.753 20.9668 36.6451 21.5254Z" fill="#1EA2DB"/>
<path opacity="0.2" d="M40.7037 21.1428C40.223 21.241 39.7329 21.2859 39.2424 21.2767C39.1391 23.1666 40.3518 24.9913 43.3319 27.4397C44.0473 25.2094 45.6272 24.7274 45.6272 24.7274L40.7037 21.1428Z" fill="black"/>
<path opacity="0.2" d="M46.9475 21.7435C46.9475 21.7435 47.2956 21.7933 48.1258 21.9845C48.6805 22.8376 49.3997 25.4658 47.7662 27.3403C47.1311 25.045 45.6162 24.7542 45.6162 24.7542L46.9475 21.7435Z" fill="black"/>
<path d="M40.7035 21.1428C40.7035 21.1428 39.9384 21.1428 39.0049 21.1428C38.4502 21.9959 40.3592 24.3601 43.3355 26.8085C44.0509 24.5782 45.6308 24.7121 45.6308 24.7121L40.7035 21.1428Z" fill="white"/>
<path d="M46.9475 21.7435C46.9475 21.7435 47.2956 21.7933 48.1258 21.9845C48.6805 22.8376 49.8779 25.1483 48.2444 27.0075C47.6093 24.7122 45.6162 24.7428 45.6162 24.7428L46.9475 21.7435Z" fill="white"/>
<path d="M41.9321 14.2759C42.154 16.3187 42.2267 20.0142 40.7041 21.2537C40.7041 21.2537 41.496 23.5491 45.6161 24.7426C48.0951 23.3119 46.9474 21.7931 46.9474 21.7931C44.7554 21.0663 44.9581 19.4098 45.4822 17.8796L41.9321 14.2759Z" fill="#FFC3BD"/>
<path opacity="0.2" d="M43.3781 15.7488L45.4822 17.8796C45.3533 18.2338 45.256 18.5986 45.1915 18.9699C44.346 18.7748 43.1218 17.8949 43.1104 16.9921C43.1259 16.5651 43.2166 16.1443 43.3781 15.7488Z" fill="black"/>
<path d="M46.5837 6.11221C47.2531 5.37387 48.5806 6.31496 49.0703 8.12446C49.8048 10.8024 47.8461 10.9936 46.8209 9.65469C45.7956 8.31574 46.0251 6.72813 46.5837 6.11221Z" fill="#263238"/>
<path d="M48.6571 10.8139C49.3288 11.0463 49.9639 11.3735 50.5431 11.7856C50.2103 10.9746 49.9119 10.4811 48.6571 10.8139Z" fill="#263238"/>
<path d="M49.0439 10.9401C49.5878 10.8319 50.1441 10.8009 50.6966 10.8483C50.1534 10.4313 49.7593 10.2248 49.0439 10.9401Z" fill="#263238"/>
<path d="M40.1261 11.0855C40.9792 14.3487 41.2737 15.7489 43.2707 17.1146C46.2814 19.1727 50.1031 17.413 50.2447 13.9585C50.3709 10.8521 48.9555 6.03956 45.4627 5.35861C44.693 5.20236 43.8961 5.2462 43.1482 5.48593C42.4003 5.72566 41.7264 6.15328 41.1909 6.72786C40.6555 7.30245 40.2764 8.0048 40.09 8.76775C39.9036 9.53069 39.916 10.3287 40.1261 11.0855Z" fill="#FFC3BD"/>
<path d="M41.7017 6.78163L40.7568 7.87957C40.4733 8.20396 40.0734 8.40355 39.6437 8.43505C39.214 8.46656 38.7893 8.32746 38.4615 8.0479C38.1365 7.76492 37.9362 7.36526 37.904 6.93558C37.8718 6.50589 38.0102 6.08083 38.2893 5.75255L39.2342 4.65844C39.5178 4.33437 39.9173 4.1347 40.3467 4.1025C40.7761 4.0703 41.2009 4.20813 41.5296 4.48628C41.8536 4.76981 42.0533 5.16934 42.0855 5.59872C42.1177 6.0281 41.9799 6.45294 41.7017 6.78163Z" fill="white"/>
<path d="M42.5745 8.00582L41.4268 8.57965C40.9557 8.81036 40.4126 8.84531 39.9158 8.67687C39.4191 8.50843 39.0092 8.15028 38.7757 7.68064C38.5448 7.20904 38.5097 6.66528 38.6782 6.16794C38.8466 5.6706 39.2048 5.26001 39.6747 5.0257L40.8224 4.45187C41.2944 4.22126 41.8385 4.18677 42.336 4.35592C42.8334 4.52507 43.2437 4.88412 43.4773 5.3547C43.7077 5.82621 43.7421 6.36977 43.5729 6.86656C43.4038 7.36335 43.0448 7.77295 42.5745 8.00582Z" fill="#1EA2DB"/>
<path d="M41.1051 13.5262C41.1051 13.5262 43.4616 12.9868 42.4593 9.53998C42.4219 9.40734 42.4154 9.26789 42.4402 9.13233C42.465 8.99676 42.5206 8.86867 42.6025 8.75789C42.6845 8.6471 42.7908 8.55656 42.9132 8.49319C43.0356 8.42982 43.1708 8.39531 43.3086 8.39231C45.9636 8.31963 48.4464 7.76492 48.0944 6.22704C47.6545 4.28365 41.0401 2.78402 39.8388 6.67463C37.4938 7.22169 37.4058 11.843 41.1051 13.5262Z" fill="#263238"/>
<path d="M41.1172 12.8453C41.7889 13.0777 42.424 13.4049 43.0032 13.817C42.6704 13.0136 42.372 12.5201 41.1172 12.8453Z" fill="#263238"/>
<path d="M41.5029 12.9791C42.0467 12.8709 42.6031 12.8399 43.1556 12.8873C42.6162 12.478 42.2221 12.2676 41.5029 12.9791Z" fill="#263238"/>
<path d="M39.5905 13.6486C39.896 14.2249 40.4173 14.6568 41.0404 14.8499C41.8705 15.0985 42.299 14.364 42.0848 13.5721C41.8897 12.8606 41.224 11.8774 40.3862 11.973C40.204 11.9983 40.0309 12.0684 39.8825 12.1772C39.7341 12.2859 39.615 12.4299 39.5361 12.5961C39.4572 12.7623 39.4208 12.9455 39.4303 13.1292C39.4398 13.313 39.4949 13.4915 39.5905 13.6486Z" fill="#FFC3BD"/>
<path d="M45.6578 10.9746C45.7114 11.2424 45.8989 11.4336 46.071 11.3992C46.2432 11.3648 46.3465 11.1161 46.2967 10.8483C46.247 10.5805 46.0557 10.3893 45.8797 10.4237C45.7037 10.4581 45.6043 10.703 45.6578 10.9746Z" fill="#263238"/>
<path d="M48.6992 10.3739C48.7527 10.6456 48.9364 10.833 49.1124 10.7986C49.2883 10.7642 49.3878 10.5193 49.3342 10.2515C49.2807 9.98373 49.0971 9.79245 48.9211 9.82688C48.7451 9.86131 48.6456 10.1062 48.6992 10.3739Z" fill="#263238"/>
<path d="M48.8486 9.8574L49.4569 9.5437C49.4569 9.5437 49.2235 10.1137 48.8486 9.8574Z" fill="#263238"/>
<path d="M47.6553 11.0471C48.0153 11.6143 48.4517 12.1292 48.9521 12.5774C48.8354 12.7052 48.6919 12.8058 48.5319 12.8719C48.3719 12.938 48.1993 12.9681 48.0264 12.9599L47.6553 11.0471Z" fill="#ED847E"/>
<path d="M46.7829 14.2263C46.2169 14.2335 45.6694 14.0241 45.2527 13.6409C45.2403 13.6281 45.2334 13.611 45.2334 13.5931C45.2334 13.5753 45.2403 13.5581 45.2527 13.5453C45.2655 13.5329 45.2827 13.526 45.3005 13.526C45.3184 13.526 45.3355 13.5329 45.3483 13.5453C45.6058 13.7723 45.9133 13.9353 46.2457 14.0211C46.578 14.1068 46.926 14.1129 47.2611 14.0388C47.2784 14.0358 47.2961 14.0397 47.3105 14.0497C47.3248 14.0598 47.3346 14.0751 47.3377 14.0924C47.3407 14.1096 47.3368 14.1274 47.3267 14.1417C47.3167 14.1561 47.3013 14.1658 47.2841 14.1689C47.1196 14.2059 46.9516 14.2251 46.7829 14.2263Z" fill="#263238"/>
<path d="M43.833 9.93016C43.8089 9.92916 43.7854 9.92262 43.7642 9.91103C43.7337 9.89275 43.7118 9.86315 43.7032 9.82871C43.6946 9.79428 43.7 9.75784 43.7183 9.7274C43.8448 9.51244 44.0209 9.33084 44.2318 9.19774C44.4428 9.06465 44.6825 8.98392 44.931 8.96228C44.9662 8.96223 45.0001 8.97568 45.0258 8.99987C45.0514 9.02407 45.0667 9.05717 45.0687 9.09235C45.0692 9.10993 45.0662 9.12745 45.06 9.14389C45.0537 9.16033 45.0443 9.17537 45.0322 9.18816C45.0201 9.20095 45.0056 9.21124 44.9896 9.21843C44.9735 9.22562 44.9562 9.22958 44.9386 9.23007C44.7334 9.25265 44.5365 9.32375 44.3642 9.43751C44.1919 9.55126 44.0492 9.7044 43.9478 9.88425C43.9338 9.90056 43.916 9.91324 43.896 9.92124C43.8761 9.92923 43.8545 9.93229 43.833 9.93016Z" fill="#263238"/>
<path d="M49.5447 8.85134C49.5233 8.85702 49.5009 8.85702 49.4796 8.85134C49.3012 8.74613 49.1006 8.68439 48.8939 8.6711C48.6872 8.6578 48.4803 8.69334 48.2899 8.77483C48.2559 8.79208 48.2164 8.79512 48.1802 8.78328C48.144 8.77145 48.1139 8.7457 48.0967 8.71171C48.0794 8.67772 48.0764 8.63827 48.0882 8.60204C48.1001 8.56581 48.1258 8.53577 48.1598 8.51852C48.3889 8.41472 48.6397 8.36782 48.8908 8.38181C49.1419 8.3958 49.3859 8.47026 49.602 8.59886C49.6173 8.60722 49.6307 8.61855 49.6415 8.63219C49.6523 8.64582 49.6603 8.66148 49.6649 8.67825C49.6695 8.69501 49.6708 8.71254 49.6685 8.72979C49.6663 8.74703 49.6606 8.76365 49.6518 8.77866C49.6421 8.79931 49.6271 8.81698 49.6082 8.82977C49.5894 8.84257 49.5674 8.85002 49.5447 8.85134Z" fill="#263238"/>
<path d="M41.8897 46.6058L44.9501 46.8201L43.5691 50.0909C43.5691 50.0909 41.0136 49.2837 40.9103 47.413L41.8897 46.6058Z" fill="#FFC3BD"/>
<path d="M46.1249 48.6716L44.6444 50.9058L43.5732 50.0909L44.9619 46.8201L46.1249 48.6716Z" fill="#FFC3BD"/>
<path d="M45.8066 10.4543L46.4149 10.1406C46.4149 10.1406 46.1815 10.7106 45.8066 10.4543Z" fill="#263238"/>
</svg>
